<?xml version="1.0" standalone="no"?>
<!DOCTYPE svg PUBLIC "-//W3C//DTD SVG 1.1//EN" "http://www.w3.org/Graphics/SVG/1.1/DTD/svg11.dtd" >
<svg xmlns="http://www.w3.org/2000/svg" xmlns:xlink="http://www.w3.org/1999/xlink" version="1.1">
<metadata>
Created by FontForge 20161116 at Tue Aug  4 12:20:16 2015
 By Jimmy Warting
Copyright (c) 2014 by David Kerkhoff. All rights reserved.
</metadata>
<defs>
<font id="DKButterflyBall" horiz-adv-x="420" >
  <font-face 
    font-family="DK Butterfly Ball"
    font-weight="400"
    font-stretch="normal"
    units-per-em="1000"
    panose-1="2 0 0 0 0 0 0 0 0 0"
    ascent="800"
    descent="-200"
    x-height="533"
    cap-height="762"
    bbox="-42 -291 746 1111"
    underline-thickness="50"
    underline-position="-100"
    unicode-range="U+0020-263A"
  />
<missing-glyph horiz-adv-x="620" 
d="M138 86c-78 64 -108 140 -108 239c0 118 31 202 120 291c38 33 88 56 142 64h17c175 0 281 -141 281 -316c0 -180 -105 -309 -302 -318c-56 0 -99 14 -150 40zM485 299l-367 -4c6 -107 99 -169 204 -169c88 0 156 84 163 173zM214 453c20 0 35 -16 49 -27h5
c0 41 -18 76 -62 76c-26 0 -76 -40 -76 -69c11 0 20 11 30 15c17 5 36 5 54 5zM411 458c13 0 27 -3 40 -8c7 -3 15 -12 22 -12c3 0 3 5 3 6c0 37 -26 55 -60 55s-49 -22 -65 -49c-3 -4 -3 -5 -3 -10h8c16 11 35 18 55 18z" />
    <glyph glyph-name=".notdef" unicode="&#x263a;" horiz-adv-x="620" 
d="M138 86c-78 64 -108 140 -108 239c0 118 31 202 120 291c38 33 88 56 142 64h17c175 0 281 -141 281 -316c0 -180 -105 -309 -302 -318c-56 0 -99 14 -150 40zM485 299l-367 -4c6 -107 99 -169 204 -169c88 0 156 84 163 173zM214 453c20 0 35 -16 49 -27h5
c0 41 -18 76 -62 76c-26 0 -76 -40 -76 -69c11 0 20 11 30 15c17 5 36 5 54 5zM411 458c13 0 27 -3 40 -8c7 -3 15 -12 22 -12c3 0 3 5 3 6c0 37 -26 55 -60 55s-49 -22 -65 -49c-3 -4 -3 -5 -3 -10h8c16 11 35 18 55 18z" />
    <glyph glyph-name="space" unicode=" " horiz-adv-x="300" 
 />
    <glyph glyph-name="exclam" unicode="!" horiz-adv-x="223" 
d="M45 178c0 195 9 388 17 582c1 3 3 15 3 17c7 20 83 13 119 15c1 0 7 -2 8 -3c0 -2 1 -11 1 -13c0 -83 -26 -165 -64 -614c-6 -1 -32 -3 -41 -3c-15 0 -43 0 -43 19zM30 42c0 40 19 83 64 83c31 0 52 -25 52 -56c0 -35 -19 -81 -62 -81c-33 0 -54 20 -54 54z" />
    <glyph glyph-name="quotedbl" unicode="&#x22;" horiz-adv-x="320" 
d="M41 518l-11 184c0 41 30 69 73 69c27 0 37 -33 37 -53c0 -27 -2 -55 -38 -181c-3 -8 -8 -39 -23 -39h-26c-5 0 -11 18 -12 20zM191 514l-11 184c0 41 30 69 73 69c27 0 37 -33 37 -53c0 -27 -2 -55 -38 -181c-3 -8 -8 -39 -23 -39h-26c-5 0 -11 18 -12 20z" />
    <glyph glyph-name="dollar" unicode="$" horiz-adv-x="558" 
d="M243 -62c-5 12 4 48 -6 57c0 1 -4 3 -6 3c-1 0 -19 2 -21 2c-63 15 -115 45 -156 88c-13 16 -35 42 -14 63c14 14 64 55 89 55c5 0 9 -1 11 -7c12 -38 33 -75 86 -75c2 0 11 -1 11 3c0 25 -4 215 -6 251c-87 21 -201 51 -201 166c0 111 60 176 177 218c6 2 8 3 12 8v70
c1 17 12 29 34 29c9 0 34 0 34 -11v-83c251 -32 172 -195 93 -195c-10 0 -49 65 -79 65c-3 0 -6 -1 -8 -2l-4 -2c0 -1 -6 -104 -8 -148c0 -2 -2 -8 0 -8c144 -26 247 -111 247 -247c0 -79 -23 -119 -86 -175c-42 -38 -92 -51 -153 -63c-2 -17 4 -32 4 -49
c0 -12 -28 -16 -40 -16c-3 0 -9 -1 -10 3zM283 351v-224h7c72 0 118 37 118 98c0 50 -52 128 -119 128c-2 0 -5 0 -6 -2zM158 573c0 -34 27 -80 73 -80c0 51 0 105 -9 158c-1 2 -3 2 -6 2c-34 0 -58 -55 -58 -80z" />
    <glyph glyph-name="quotesingle" unicode="'" horiz-adv-x="170" 
d="M41 518l-11 184c0 41 30 69 73 69c27 0 37 -33 37 -53c0 -27 -2 -55 -38 -181c-3 -8 -8 -39 -23 -39h-26c-5 0 -11 18 -12 20z" />
    <glyph glyph-name="parenleft" unicode="(" horiz-adv-x="253" 
d="M196 -10c-174 108 -191 366 -142 556c13 52 88 247 164 247h5l-5 -31c-140 -157 -167 -594 -7 -748l12 -34l-2 -3c-1 0 -18 8 -25 13z" />
    <glyph glyph-name="parenright" unicode=")" horiz-adv-x="253" 
d="M57 -10c-7 -5 -24 -13 -25 -13l-2 3l12 34c160 154 133 591 -7 748l-5 31h5c76 0 151 -195 164 -247c49 -190 32 -448 -142 -556z" />
    <glyph glyph-name="comma" unicode="," horiz-adv-x="204" 
d="M84 -69c0 6 10 16 12 25c3 13 2 29 8 42c-3 0 -7 -1 -10 -1c-35 0 -64 20 -64 58c0 31 26 78 65 78c56 0 79 -34 79 -87c0 -38 -39 -121 -85 -121c-4 0 -5 3 -5 6z" />
    <glyph glyph-name="hyphen" unicode="-" horiz-adv-x="433" 
d="M33 299c-2 23 -3 42 -2 63c0 20 4 26 19 27c5 0 24 2 33 0c56 3 234 0 307 -2c8 -3 9 -8 10 -19l2 -51c0 -5 1 -17 -4 -18c-2 -1 -12 -2 -15 -1c-80 -3 -183 7 -350 1z" />
    <glyph glyph-name="period" unicode="." horiz-adv-x="171" 
d="M30 39c0 26 15 61 50 61s60 -20 60 -50c0 -31 -6 -45 -41 -59h-16c-36 0 -53 16 -53 48z" />
    <glyph glyph-name="slash" unicode="/" horiz-adv-x="279" 
d="M30 -3l114 800c2 3 7 5 10 6c30 2 45 3 71 3c7 0 18 1 24 -3l-127 -799l-1 -7c-7 -3 -36 -5 -91 0z" />
    <glyph glyph-name="zero" unicode="0" horiz-adv-x="563" 
d="M30 361c0 146 63 435 248 443c69 -5 129 -16 179 -73c87 -99 84 -300 64 -424c-20 -123 -69 -302 -225 -302c-202 0 -266 178 -266 356zM152 380c0 -71 30 -254 128 -254c59 0 88 48 106 104c7 22 84 464 -87 464c-8 0 -16 -1 -25 -3c-116 -25 -122 -206 -122 -311z" />
    <glyph glyph-name="one" unicode="1" 
d="M30 116c0 2 0 4 3 5c35 -2 73 2 109 2h11l2 6v64c0 134 -2 241 -11 369l-52 -37c-2 3 -44 72 -44 76l90 72c2 2 7 6 7 7l7 104l136 -14v-6c-18 -49 -8 -638 -3 -638l105 -10s-3 -46 -12 -116c-105 9 -238 4 -344 10z" />
    <glyph glyph-name="two" unicode="2" horiz-adv-x="458" 
d="M44 11c-5 20 -6 28 -6 46c0 187 241 523 241 551c0 39 -47 43 -78 43c-20 0 -55 -11 -71 -23c-3 -1 -34 -29 -35 -29c-7 0 -66 68 -64 71c76 114 397 130 397 -17c0 -83 -63 -132 -107 -206c-18 -31 -191 -340 -143 -340c22 0 194 46 205 32c4 -8 25 -85 25 -92
c0 -3 0 -6 -3 -7c-87 -13 -207 -26 -285 -44c-14 -3 -29 -8 -44 -8c-13 0 -22 11 -30 20z" />
    <glyph glyph-name="three" unicode="3" horiz-adv-x="503" 
d="M30 29c0 14 32 113 39 125c31 0 62 -8 95 -8c81 0 199 32 199 134c0 109 -99 136 -187 136c-18 0 -18 71 -29 84v4c0 15 118 39 118 89c0 44 -48 61 -84 61c-34 0 -61 -9 -92 -23c-23 23 -36 59 -50 90c110 87 361 58 361 -114v-4c-1 -52 -46 -85 -85 -111
c102 -34 158 -110 158 -214c0 -8 0 -15 -1 -23c-15 -176 -224 -241 -378 -241h-14c-16 0 -50 0 -50 15z" />
    <glyph glyph-name="four" unicode="4" horiz-adv-x="615" 
d="M351 6c-7 66 9 128 9 194v10l-3 2l-321 23c-5 2 -6 5 -6 10v4c335 510 354 511 364 511c35 0 73 -2 108 -6c7 -4 20 -4 20 -14c0 -60 -17 -317 -31 -430l3 -3c28 0 56 2 89 3c3 -98 1 -104 0 -106c0 -1 -2 -4 -3 -4h-100s-2 -3 -3 -4v-178c0 -19 -124 -21 -126 -12z
M211 332c0 -7 133 -14 154 -14h10l3 3c26 290 27 296 26 305c-72 -85 -137 -198 -193 -294z" />
    <glyph glyph-name="five" unicode="5" horiz-adv-x="516" 
d="M75 15v112c95 0 276 -48 277 122c-10 198 -82 206 -288 171c0 0 -4 -1 -5 -1c-6 0 -17 1 -17 11c-2 99 -13 199 -11 302c84 33 240 31 343 37l2 -3c1 -5 6 -85 6 -111v-11l-3 -3c-69 -23 -147 -5 -216 -19c-5 -2 -6 -13 -6 -15c-1 -10 -1 -38 0 -50l3 -10
c176 40 326 -66 326 -280v-12c-7 -242 -217 -242 -389 -244c-6 0 -19 1 -19 1z" />
    <glyph glyph-name="six" unicode="6" horiz-adv-x="569" 
d="M505 373c187 -413 -474 -532 -474 -38c0 44 5 94 17 149c24 113 94 289 235 289c49 0 190 -41 190 -110c0 -18 -69 -61 -75 -61h-6c-23 29 -61 48 -98 48c-85 0 -137 -182 -137 -250c0 -3 0 -5 3 -6c64 104 285 113 345 -21zM313 380c-5 0 -9 1 -14 1
c-171 0 -183 -252 6 -252c138 0 149 251 8 251z" />
    <glyph glyph-name="seven" unicode="7" horiz-adv-x="476" 
d="M300 29l-101 15c-1 1 -6 5 -6 6v3c53 191 73 347 107 568c0 0 -13 2 -19 3c-55 10 -177 3 -250 21c-2 40 4 76 6 116c113 -7 232 -6 348 -15c17 -1 61 0 61 -27v-10c-3 -28 -11 -105 -128 -659c-2 -7 -6 -21 -15 -21h-3z" />
    <glyph glyph-name="eight" unicode="8" horiz-adv-x="624" 
d="M352 1c-299 1 -322 127 -322 232c0 98 38 132 105 198v3c-1 0 -3 5 -4 6c-21 32 -42 65 -42 106c0 124 97 240 233 240c123 0 231 -87 231 -211c0 -51 -6 -117 -29 -161c0 -1 -1 -3 -1 -3c49 -23 71 -75 71 -145c0 -62 -38 -175 -92 -214c-43 -30 -97 -51 -150 -51z
M173 156c46 -36 86 -47 145 -47c80 0 142 64 142 144c0 52 -209 153 -236 121c-37 -32 -76 -96 -76 -147c0 -32 9 -45 25 -71zM209 588c0 -63 43 -86 100 -107c12 -4 110 -46 115 -35c33 86 71 238 -108 238c-51 0 -107 -41 -107 -96z" />
    <glyph glyph-name="nine" unicode="9" horiz-adv-x="569" 
d="M65 411c-187 413 474 532 474 38c0 -44 -5 -94 -17 -149c-24 -113 -94 -289 -235 -289c-49 0 -190 41 -190 110c0 18 69 61 75 61h6c23 -29 61 -48 98 -48c85 0 137 182 137 250c0 3 0 5 -3 6c-64 -104 -285 -113 -345 21zM257 404c5 0 9 -1 14 -1c171 0 183 252 -6 252
c-138 0 -149 -251 -8 -251z" />
    <glyph glyph-name="colon" unicode=":" horiz-adv-x="170" 
d="M30 455c0 26 15 61 50 61s60 -20 60 -50c0 -31 -6 -45 -41 -59h-16c-36 0 -53 16 -53 48zM30 39c0 26 15 61 50 61s60 -20 60 -50c0 -31 -6 -45 -41 -59h-16c-36 0 -53 16 -53 48z" />
    <glyph glyph-name="semicolon" unicode=";" horiz-adv-x="204" 
d="M30 455c0 26 15 61 50 61s60 -20 60 -50c0 -31 -6 -45 -41 -59h-16c-36 0 -53 16 -53 48zM84 -69c0 6 10 16 12 25c3 13 2 29 8 42c-3 0 -7 -1 -10 -1c-35 0 -64 20 -64 58c0 31 26 78 65 78c56 0 79 -34 79 -87c0 -38 -39 -121 -85 -121c-4 0 -5 3 -5 6z" />
    <glyph glyph-name="equal" unicode="=" horiz-adv-x="435" 
d="M35 325c-2 23 -3 42 -2 63c0 20 4 26 19 27c5 0 24 2 33 0c56 3 234 0 307 -2c8 -3 9 -8 10 -19l2 -51c0 -5 1 -17 -4 -18c-2 -1 -12 -2 -15 -1c-80 -3 -183 7 -350 1zM33 179c-2 23 -3 42 -2 63c0 20 4 26 19 27c5 0 24 2 33 0c56 3 234 0 307 -2c8 -3 9 -8 10 -19
l2 -51c0 -5 1 -17 -4 -18c-2 -1 -12 -2 -15 -1c-80 -3 -183 7 -350 1z" />
    <glyph glyph-name="question" unicode="?" horiz-adv-x="352" 
d="M117 200c-66 372 211 539 46 539c-36 0 -68 -15 -98 -37c-6 0 -10 6 -35 80v4c0 35 93 64 119 68c107 16 227 -42 149 -218c-8 -18 -50 -99 -60 -116c-30 -70 -35 -150 -35 -225c0 -29 4 -56 4 -84c0 -5 0 -14 -10 -14h-77c-1 0 -2 2 -3 3zM103 42c0 105 78 147 123 44
c21 -48 -6 -88 -68 -88c-30 0 -55 11 -55 44z" />
    <glyph glyph-name="at" unicode="@" horiz-adv-x="702" 
d="M30 375c0 63 5 131 36 187c213 502 841 74 511 -355c-50 -43 -139 -38 -185 15c-6 6 -10 14 -16 24c-33 -33 -67 -44 -113 -44c-29 0 -59 19 -70 63c0 64 39 93 96 113c24 8 40 8 66 8c0 16 8 89 -20 93c-20 0 -28 -31 -46 -31l-51 35c0 45 71 75 111 75
c56 0 89 -40 96 -94c-2 -53 1 -107 6 -160c4 -35 13 -49 45 -49c78 0 82 154 82 218c0 130 -72 241 -218 246c-53 0 -101 -33 -133 -72c-78 -95 -104 -171 -104 -296c0 -116 51 -273 187 -295c66 -26 104 41 172 41c3 0 6 0 7 -3c12 -43 12 -45 12 -46
c-213 -193 -471 49 -471 319v8zM262 276c0 -9 13 -11 20 -11c27 0 62 11 62 43c0 1 -1 5 -2 5c-10 3 -15 3 -25 3c-22 0 -55 -14 -55 -40z" />
    <glyph glyph-name="A" unicode="A" 
d="M31 -22v5c5 68 10 141 30 546c10 189 60 272 176 272c7 0 15 0 23 -1c105 0 125 -117 128 -199v-5c1 -22 4 -73 -5 -591l-7 -5h-40c-16 0 -32 -1 -50 5c-1 10 -2 57 -15 251h-7c-36 0 -73 -3 -122 -3c-4 -45 -3 -91 5 -275c0 0 -3 -7 -5 -7h-108c-4 0 -3 6 -3 7zM156 401
c0 -12 1 -53 1 -58l2 -5c1 -1 35 -2 107 -3c3 1 3 5 3 8l12 196v17c0 134 -107 167 -119 10c-5 -64 -6 -95 -6 -165z" />
    <glyph glyph-name="B" unicode="B" horiz-adv-x="497" 
d="M89 55l-59 695v8c0 20 39 29 54 31c12 2 49 7 52 7h8c105 0 196 -35 196 -162c0 -42 -9 -84 -42 -113c-4 -3 -34 -26 -37 -29l-3 -5c24 -5 44 -5 67 -13c96 -31 142 -144 142 -243c0 -41 -11 -98 -45 -126c-91 -48 -202 -88 -313 -88c-2 0 -10 1 -12 1c-9 3 -7 30 -8 37z
M174 381c0 -41 10 -83 15 -123c2 -20 13 -114 14 -134h10c42 10 84 17 112 57c8 23 8 33 8 52v6c0 90 -33 146 -132 146c-4 0 -23 -2 -27 -4zM149 539c53 -11 80 31 80 80c0 58 -12 81 -71 81h-17c-2 -1 -5 -2 -7 -5z" />
    <glyph glyph-name="C" unicode="C" horiz-adv-x="437" 
d="M319 24c-395 0 -360 756 -40 763c22 0 45 -9 66 -18c1 -1 5 -3 5 -3v-99h-19c-197 0 -210 -444 -32 -513c34 -13 70 -10 108 -8v-103s-7 -4 -11 -5c-25 -10 -50 -14 -77 -14z" />
    <glyph glyph-name="D" unicode="D" horiz-adv-x="464" 
d="M30 41l16 761c2 6 2 19 8 22l61 2c80 0 169 -35 229 -87c1 -1 5 -5 5 -6c59 -47 85 -182 85 -258c0 -193 -32 -419 -269 -435l-133 -2zM157 158c0 -6 2 -7 7 -7h4c132 12 144 146 144 249v28c0 122 -12 217 -106 289c-6 5 -15 11 -24 11h-6c-7 -58 -18 -439 -19 -570z
" />
    <glyph glyph-name="E" unicode="E" horiz-adv-x="415" 
d="M80 37l-50 719v20l235 18c5 0 30 3 33 -6c2 -31 10 -60 10 -90v-14c-7 -12 -135 -13 -159 -20v-9c0 -9 3 -247 27 -247l140 20c1 0 4 1 5 1l22 -106l-168 -21v-13c0 -51 4 -106 9 -155c0 -10 2 -24 14 -24c17 0 132 20 161 21c10 0 12 -10 13 -18c4 -20 12 -62 12 -86
c0 -2 2 -10 -3 -11c-52 -1 -98 -13 -253 -23c-1 -1 -23 -3 -24 -3s-4 -1 -5 -1c-18 0 -18 39 -19 48z" />
    <glyph glyph-name="F" unicode="F" horiz-adv-x="340" 
d="M35 812c29 3 80 6 269 0c1 0 3 -2 3 -3c1 -2 3 -9 3 -10v-102l-3 -3l-138 -7c-1 0 -12 2 -12 -3l-3 -26v-200c0 -4 2 -18 3 -20c0 -3 5 -7 6 -7h132c11 0 9 -13 9 -20c0 -16 -2 -40 -2 -56c-1 -6 -3 -23 -3 -24l-7 -5s-23 -2 -147 -7l-5 -5v-244c2 -22 3 -38 3 -58v-10
l-7 -7c-9 1 -77 1 -86 0c-2 0 -16 -2 -18 -2c0 0 -4 -1 3 819z" />
    <glyph glyph-name="G" unicode="G" horiz-adv-x="630" 
d="M30 394c0 189 115 418 332 418c57 0 135 -16 177 -62c10 -9 19 -17 19 -30c0 -8 -2 -11 -47 -49c-3 -2 -6 -4 -9 -7c0 0 -5 -1 -7 -1c-30 0 -58 28 -164 28c-124 0 -186 -228 -186 -322c0 -101 30 -226 152 -226c74 0 162 20 182 207c0 14 -1 21 -4 37c-1 5 -6 3 -8 3
c-36 0 -74 -9 -136 -9l-3 3c-3 35 -16 66 -18 101c1 2 3 7 7 8c62 24 184 30 270 24c10 -110 25 -181 -7 -295c0 -1 -1 -3 -1 -5c-35 -115 -132 -189 -252 -189c-148 0 -242 50 -276 197c-15 64 -21 100 -21 169z" />
    <glyph glyph-name="H" unicode="H" horiz-adv-x="567" 
d="M30 3c0 203 20 404 32 781c1 11 4 35 22 35l105 -3c4 -1 3 -5 3 -8c0 -8 -1 -12 -3 -21c-8 -144 -26 -271 -26 -410c0 -2 -1 -10 4 -11l213 -12c4 0 9 3 11 6c22 133 20 278 26 411c0 5 4 16 12 16c29 0 73 -8 105 -6l3 -7v-27l-15 -752c-35 0 -70 0 -118 4v8
c0 73 9 145 9 218c0 9 1 13 -3 24l-267 -2c-6 -86 2 -154 8 -239v-1c0 -4 0 -11 -7 -11c-107 -3 -108 -3 -108 -3c-6 0 -6 6 -6 10z" />
    <glyph glyph-name="I" unicode="I" horiz-adv-x="222" 
d="M30 700c0 16 0 23 3 40c11 14 48 18 117 22c13 -4 18 -18 20 -32c1 72 22 -471 22 -679v-14l-4 -3c0 -1 -20 -3 -28 -3c-27 -5 -55 2 -82 -3h-4c-21 75 -38 461 -44 658v14z" />
    <glyph glyph-name="J" unicode="J" horiz-adv-x="317" 
d="M84 -1l-54 81c0 8 6 11 12 14c130 66 122 161 112 276c0 4 -1 7 -1 11c-11 128 -63 256 -63 386c0 23 23 17 104 36h4c5 0 8 -5 9 -10l66 -291c34 -288 -4 -343 -31 -379c-24 -32 -105 -124 -152 -124h-6z" />
    <glyph glyph-name="K" unicode="K" horiz-adv-x="488" 
d="M388 34l-231 225h-6l-7 -222h-111c-7 46 3 98 3 146v32c1 46 6 199 23 582c1 31 37 32 62 32h6c10 0 40 0 46 -10v-29c0 -86 -4 -173 -23 -329c18 14 27 39 39 57c39 59 70 121 107 181c4 6 11 9 19 9c21 0 102 -21 102 -40c0 -4 0 -6 -4 -11c-14 -17 -32 -37 -44 -57
c-49 -78 -108 -153 -152 -234v-6c72 -89 166 -156 240 -244c0 -1 1 -6 1 -8c0 -19 -24 -31 -35 -42z" />
    <glyph glyph-name="L" unicode="L" horiz-adv-x="366" 
d="M34 15l-4 622c0 17 1 101 1 118c0 1 4 9 6 10c32 5 70 6 103 6h8l3 -6v-564c0 -12 3 -43 3 -44l3 -6h12c46 0 96 11 140 22h5c28 0 21 -84 21 -100v-14c-11 -15 -106 -23 -121 -25c-9 -2 -85 -11 -95 -13l-53 -13c-2 0 -14 -1 -18 -1c-2 0 -10 1 -11 1z" />
    <glyph glyph-name="M" unicode="M" horiz-adv-x="643" 
d="M30 11c0 104 13 732 78 779c7 1 14 1 20 1c127 0 138 -175 162 -274c3 -12 1 -16 6 -26c4 4 8 10 11 15c25 51 52 98 81 147c35 60 77 131 156 131c45 0 50 -89 52 -119c12 -207 17 -416 17 -623v-10c-9 -20 -94 -19 -112 -15l-6 3v12c-3 111 -10 429 -17 536
c-120 -280 -137 -284 -139 -285l-3 -3l-69 3c-33 50 -53 108 -78 162c-7 13 -10 24 -18 35c-4 -158 -11 -316 -8 -474c0 -2 -2 -10 -3 -12c-3 -4 -100 -8 -113 -8s-17 15 -17 25z" />
    <glyph glyph-name="N" unicode="N" horiz-adv-x="571" 
d="M73 147l-36 537c-1 6 -6 83 -7 102v7c0 3 3 8 3 8c128 -9 128 -9 129 -9c37 0 165 -326 243 -483c8 36 1 486 32 486c11 0 45 1 101 -9c3 -5 3 -7 3 -13v-4c-8 -60 -8 -113 -11 -603v-68c-1 -18 -3 -63 -3 -63l-3 -3c-27 -1 -57 -4 -87 3l-283 549c-1 0 -3 -2 -3 -3
c0 -27 4 -10 58 -543v-12c-10 -8 -25 0 -119 -6l-3 3c-1 2 -11 89 -14 124z" />
    <glyph glyph-name="O" unicode="O" horiz-adv-x="493" 
d="M168 763c30 25 66 31 108 31c159 0 193 -194 186 -411c-5 -145 -21 -404 -216 -404c-94 0 -185 92 -201 190c-16 100 -19 203 -6 309c13 110 42 210 129 285zM152 324c0 -97 1 -183 61 -214c54 -28 95 20 109 65c3 9 13 50 30 252v18c0 432 -200 259 -200 -85v-36z" />
    <glyph glyph-name="P" unicode="P" horiz-adv-x="405" 
d="M81 6c-16 209 -28 419 -38 629c-3 50 -13 98 -13 147c0 6 1 32 1 37c5 30 45 39 71 39c158 0 197 -39 225 -71c38 -43 48 -87 48 -142c0 -64 -30 -101 -83 -131c-2 -1 -21 -12 -117 -22l28 -447v-27c-19 2 -96 -21 -122 -12zM167 606c1 -6 11 -4 12 -4c56 0 75 30 75 81
c0 37 -53 62 -86 62c-9 0 -10 -6 -10 -14c0 -40 7 -89 9 -125z" />
    <glyph glyph-name="Q" unicode="Q" horiz-adv-x="657" 
d="M289 10h-13c-202 0 -246 223 -246 381c0 562 597 576 597 -11c0 -147 -52 -342 -220 -373c5 -37 6 -62 6 -97c0 -5 0 -20 -1 -21l-2 -3c-30 -1 -60 -6 -89 -6h-9l-2 3c-3 16 -9 60 -15 115c-1 3 -2 9 -6 12zM365 265l14 -123c122 0 140 221 140 303
c0 72 -32 244 -209 244c-139 0 -168 -238 -168 -332c0 -77 43 -144 97 -195c10 -9 25 -18 38 -18c-5 53 -15 104 -15 160c17 15 57 18 82 18c18 0 21 -46 21 -57z" />
    <glyph glyph-name="R" unicode="R" horiz-adv-x="424" 
d="M310 -14l-161 390c0 2 -3 8 -8 8c-15 -98 10 -263 11 -373c0 -3 1 -16 1 -19h-112l-6 5c0 1 -2 25 -2 35c-2 47 -3 93 5 751l3 33c0 13 154 3 195 0c4 0 7 -1 9 -1c82 -5 136 -81 148 -155c0 -6 1 -32 1 -38c0 -99 -45 -137 -141 -161c4 -17 10 -35 12 -51l126 -375v-21
c0 -3 -72 -28 -81 -28zM133 547c0 -10 1 -10 13 -10c68 0 117 15 117 94c0 52 -50 77 -97 77h-14c-15 -7 -10 -66 -19 -151v-10z" />
    <glyph glyph-name="S" unicode="S" horiz-adv-x="431" 
d="M33 189c0 20 27 27 44 29c3 1 40 5 54 6h4c3 0 6 1 7 -3c4 -29 18 -94 60 -94c39 0 86 38 86 77c0 190 -258 217 -258 392c0 91 71 186 180 186c8 0 16 -3 24 -5c57 -16 79 -26 105 -82c7 -19 10 -23 10 -36l-67 -74s-3 -1 -5 -1c-27 0 -40 92 -99 92
c-27 0 -39 -19 -39 -46c0 -139 245 -172 261 -390c8 -111 -79 -224 -200 -224c-82 0 -124 41 -151 111l-2 5c-7 18 -14 38 -14 57z" />
    <glyph glyph-name="T" unicode="T" horiz-adv-x="386" 
d="M140 17c-1 212 -14 423 -19 634c-2 7 -9 6 -15 6c-22 0 -43 -6 -66 -6c-4 0 -10 3 -10 9v122h326v-136h-113l-3 -5v-63c9 -182 22 -366 22 -549c0 -10 -2 -18 -12 -21h-98c-7 0 -10 2 -12 9z" />
    <glyph glyph-name="U" unicode="U" horiz-adv-x="523" 
d="M30 449c10 278 14 308 16 318c1 10 5 37 22 37c36 -12 78 -12 116 -12l3 -4s1 -8 1 -11c0 -4 -1 -15 -1 -17c-18 -122 -35 -324 -10 -495c8 -51 32 -113 95 -113c17 0 34 0 47 13c41 41 50 132 50 184c0 67 -2 140 -4 207c-1 58 -9 115 -9 172c0 5 4 16 10 17l91 12
c1 1 7 3 9 3c7 0 15 -5 16 -12c0 2 1 3 1 3c6 0 51 -378 -27 -602c-30 -85 -84 -119 -174 -119h-14c-116 0 -194 35 -216 160c-16 87 -22 171 -22 259z" />
    <glyph glyph-name="V" unicode="V" horiz-adv-x="509" 
d="M210 21l-16 38c-30 67 -164 609 -164 683v13c14 7 96 13 114 13c9 0 26 -3 28 -13l90 -506l83 464c3 10 2 24 9 32h31c31 0 60 -2 91 -10c3 -3 3 -5 3 -8c0 -34 -19 -73 -19 -103c0 0 -31 -247 -109 -565c-8 -35 -4 -35 -37 -37c-2 0 -5 -1 -8 -1c-3 -1 -29 -3 -90 -3z
" />
    <glyph glyph-name="W" unicode="W" horiz-adv-x="727" 
d="M203 -15c-84 0 -98 57 -107 134l-66 586c3 32 5 33 8 33c36 4 67 7 126 -7c16 -193 -3 -317 29 -563c0 -1 3 -9 3 -11c1 0 2 2 2 3l93 311l5 3c9 9 104 -11 102 -9c7 -5 7 -4 7 -4c9 0 76 -333 102 -333c27 0 39 132 75 515c3 3 7 3 11 3c31 0 82 -8 104 -36
c0 -149 -26 -294 -59 -439c-12 -53 -59 -180 -126 -180h-4c-120 9 -98 121 -158 300l-43 -177c-15 -49 -40 -129 -104 -129z" />
    <glyph glyph-name="X" unicode="X" horiz-adv-x="613" 
d="M91 88c0 54 122 233 134 285c0 3 0 6 -3 9l-188 214c-4 7 -4 9 -4 15c0 11 53 66 78 83c0 0 13 -12 17 -17c56 -62 119 -126 177 -186l123 237c8 15 8 24 22 24c1 0 5 -1 7 -1c7 -3 41 -19 48 -23c12 -5 29 -13 29 -28v-4c-6 -21 -107 -190 -152 -282c3 -9 20 -27 23 -32
c20 -22 81 -85 169 -182c4 -4 12 -13 12 -20c0 -1 -1 -3 -1 -3c-18 -17 -63 -89 -87 -89c-1 0 -6 0 -7 1c-7 5 -35 35 -40 42c-43 50 -90 106 -126 154c0 1 -2 3 -4 4l-129 -252h-4c-6 2 -34 11 -40 14c-11 5 -54 25 -54 37z" />
    <glyph glyph-name="Y" unicode="Y" horiz-adv-x="601" 
d="M250 -20c-2 40 -11 306 -15 349c0 17 -4 60 -5 61l-7 8c-12 -2 -23 -2 -34 -2c-121 0 -159 96 -159 207v25c0 21 2 129 15 156c39 -2 79 4 118 4h8c2 0 6 -3 6 -4l3 -23v-144c0 -2 -1 -18 -1 -20v-13c1 -42 2 -55 54 -61l192 19c15 10 16 22 21 38c-1 48 -5 115 -4 167
l124 -3c1 -36 5 -78 5 -116v-11c-2 -61 -9 -125 -46 -175c-33 -44 -137 -42 -146 -68l1 -395l-3 -1l-114 -6c-6 1 -10 0 -13 8z" />
    <glyph glyph-name="Z" unicode="Z" horiz-adv-x="544" 
d="M31 36l1 64l321 580c-79 7 -166 -4 -284 0c-1 0 -1 3 -1 4l2 112l431 20c9 -3 13 -9 13 -20l-14 -112c-52 -103 -191 -380 -288 -529c0 -1 2 -4 3 -4l277 -8l-3 -108c-1 -10 -5 -19 -15 -20c-79 0 -78 15 -433 3c-9 0 -11 8 -10 18z" />
    <glyph glyph-name="bracketleft" unicode="[" horiz-adv-x="245" 
d="M42 27l-12 738c0 13 5 24 14 32c42 14 91 17 139 18c12 -43 12 -55 12 -105c-31 -4 -52 -3 -81 -19c-4 -50 -3 -99 14 -552c16 0 79 13 84 -2c-1 -34 3 -65 3 -113c-45 -7 -94 -12 -142 -12h-22c-8 0 -9 11 -9 15z" />
    <glyph glyph-name="backslash" unicode="\" horiz-adv-x="279" 
d="M135 797l114 -800c-55 -5 -84 -3 -91 0l-1 7l-127 799c6 4 17 3 24 3c26 0 41 -1 71 -3c3 -1 8 -3 10 -6z" />
    <glyph glyph-name="bracketright" unicode="]" horiz-adv-x="245" 
d="M215 765l-12 -738c0 -4 -1 -15 -9 -15h-22c-48 0 -97 5 -142 12c0 48 4 79 3 113c5 15 68 2 84 2c17 453 18 502 14 552c-29 16 -50 15 -81 19c0 50 0 62 12 105c48 -1 97 -4 139 -18c9 -8 14 -19 14 -32z" />
    <glyph glyph-name="underscore" unicode="_" horiz-adv-x="662" 
d="M37 -8c-6 50 -7 53 -7 58c1 9 78 8 490 2c30 0 63 -1 97 -1c14 -1 13 -26 14 -37c0 -2 1 -23 1 -33l-584 7l-9 1z" />
    <glyph glyph-name="grave" unicode="`" horiz-adv-x="279" 
d="M159 653c-5 0 -10 2 -13 6c-27 40 -111 101 -116 145c0 27 40 58 63 58c20 0 27 -21 39 -36c26 -36 56 -70 84 -105c6 -6 27 -33 31 -39c1 0 1 -4 1 -5c1 -8 -74 -24 -89 -24z" />
    <glyph glyph-name="a" unicode="a" horiz-adv-x="471" 
d="M30 109v7c0 96 47 177 146 212c39 14 106 18 132 18c12 0 -8 124 -73 124c-54 0 -88 -44 -125 -72c0 0 -72 58 -72 60c0 10 15 24 21 33c65 66 126 88 207 88c134 0 167 -111 171 -217v-9c5 -104 5 -211 0 -315c-3 -10 -19 -29 -83 -36h-4c-37 0 -8 41 -30 51
c-15 -11 -20 -23 -38 -33c-38 -25 -89 -28 -136 -28c-75 0 -113 57 -116 117zM148 119c6 -45 163 3 163 19v25c0 34 -1 87 -18 87c-153 0 -146 -110 -145 -131z" />
    <glyph glyph-name="b" unicode="b" horiz-adv-x="500" 
d="M49 -33l-7 3l-1 16c-17 254 9 508 -11 762c0 8 1 30 2 30l6 3l116 9v-427c39 47 103 65 162 69c107 0 153 -75 153 -185c0 -121 -55 -228 -179 -237c-55 0 -90 4 -137 33c0 -22 1 -52 -2 -75c0 -5 -7 -3 -10 -3c-28 -3 -57 2 -85 2h-7zM172 141c167 -106 285 159 112 159
c-5 0 -9 -1 -14 -1c-27 -2 -98 -11 -98 -74v-84z" />
    <glyph glyph-name="c" unicode="c" horiz-adv-x="500" 
d="M291 30c-10 -1 -20 -1 -29 -1c-187 0 -232 165 -232 262v9c5 152 101 290 293 290c35 0 86 -23 86 -59c0 -14 -28 -84 -43 -84c-20 0 -35 12 -57 12c-76 0 -120 -52 -146 -110c-17 -37 -12 -116 12 -153c18 -32 62 -50 101 -51h9c28 0 66 4 90 17c8 4 41 31 51 31
c16 0 44 -64 44 -85c0 -48 -141 -78 -179 -78z" />
    <glyph glyph-name="d" unicode="d" horiz-adv-x="521" 
d="M369 -6c0 13 9 44 -7 47c-71 -29 -99 -49 -175 -49c-89 0 -156 69 -156 156c-1 6 -1 12 -1 19c0 161 175 266 325 237l4 402c1 7 7 10 128 4c4 -5 3 -10 3 -15c0 -164 -11 -327 -11 -490c0 -103 4 -206 4 -311v-13c-7 -11 -73 -13 -90 -13c-2 0 -12 1 -15 1
c-9 3 -9 20 -9 25zM159 144c0 -72 148 -19 190 1v24c-1 32 -5 131 -6 131c-9 1 -19 1 -27 1c-154 0 -157 -92 -157 -148v-9z" />
    <glyph glyph-name="e" unicode="e" horiz-adv-x="502" 
d="M210 -8c-125 6 -162 121 -176 217c-19 135 30 310 205 335c170 24 207 -35 227 -179l6 -40l-294 -67c-1 0 -7 -6 -8 -9c-2 -6 -6 -23 5 -109c6 -41 47 -56 86 -51c48 7 102 65 142 65c17 0 54 -41 56 -56v-5c-68 -92 -139 -107 -249 -101zM281 455
c-28 -4 -64 -16 -83 -37c-13 -12 -33 -48 -33 -69v-4l9 2c1 0 3 1 4 1c27 4 55 7 172 33c0 0 0 1 -1 4c-2 12 -10 44 -10 45c-9 30 -30 29 -58 25z" />
    <glyph glyph-name="f" unicode="f" horiz-adv-x="366" 
d="M100 -22l-17 385l-47 -2c-2 0 -6 2 -6 2v129s4 3 6 3c3 1 49 3 53 3c-44 339 71 342 202 342c12 0 45 1 45 -15c0 -28 -5 -66 -5 -90l-7 -7c-83 13 -137 -22 -137 -106c0 -36 -5 -81 7 -116c23 0 47 1 69 1c3 0 9 1 9 -3c9 -38 15 -63 15 -101c0 -10 -4 -20 -18 -21
l-69 -6l28 -362c2 -10 3 -15 3 -23c0 -27 -77 -19 -98 -19h-24c-4 1 -7 3 -9 6z" />
    <glyph glyph-name="g" unicode="g" horiz-adv-x="491" 
d="M66 -44c0 5 0 16 1 17l6 3l175 18c39 7 62 24 70 169c-37 -1 -78 -6 -116 -6c-266 0 -208 407 74 407h5c15 0 32 0 49 -7c19 6 -16 43 62 43c19 0 29 -1 49 -3h4c19 -3 15 -42 15 -54v-25c-4 -148 -5 -295 -10 -442c-3 -113 -97 -186 -205 -191l-155 -6
c-21 0 -24 64 -24 77zM151 320c0 -43 54 -51 85 -51c12 0 44 5 58 8c1 0 2 1 3 1l3 3l-3 158l-3 3h-13c-79 0 -130 -37 -130 -122z" />
    <glyph glyph-name="h" unicode="h" horiz-adv-x="494" 
d="M55 20c0 4 -3 22 -3 26c-6 254 -5 512 -22 765v13h111c2 0 4 -2 4 -3c6 -21 2 -28 3 -51c10 -146 7 -202 14 -347c1 -4 3 -4 5 -4c1 0 3 1 3 1c48 15 155 36 205 36c54 0 83 -36 83 -89l3 -288c0 -5 2 -24 3 -29v-5c0 -20 -88 -20 -114 -20h-11l-3 3
c-5 49 -9 187 -19 253c-1 8 -2 38 -14 38c-29 0 -114 -4 -133 -27c-1 -7 0 -128 0 -134v-135l-2 -3c-18 -1 -87 -12 -113 0z" />
    <glyph glyph-name="i" unicode="i" horiz-adv-x="240" 
d="M31 18c-1 8 -1 43 -1 50c0 0 18 459 37 459c4 0 6 -1 103 -3c9 0 10 -9 10 -14c0 -2 -1 -9 -1 -10c-1 -30 -9 -162 -37 -469c-1 -13 -3 -17 -15 -19c-31 2 -61 -6 -93 3c-1 0 -3 2 -3 3zM56 696c0 5 -1 25 -1 29c0 104 126 150 154 40c0 0 1 -12 1 -16
c0 -45 -21 -99 -72 -99c-30 0 -71 14 -82 46z" />
    <glyph glyph-name="j" unicode="j" horiz-adv-x="267" 
d="M10 -24v6c36 48 86 88 92 157c8 121 -10 243 -10 369v5c0 2 -1 4 4 5c39 4 81 10 121 6l6 -6l10 -146c0 -29 4 -58 4 -93c0 -74 -2 -171 -45 -236c-13 -19 -74 -106 -86 -125c-5 -5 -12 -12 -20 -12c-20 0 -45 39 -76 70zM130 640c-36 0 -78 32 -78 72
c0 88 163 121 163 21c0 -45 -36 -93 -85 -93z" />
    <glyph glyph-name="k" unicode="k" horiz-adv-x="438" 
d="M59 116l-29 699c0 4 1 16 1 17l3 3h125c0 -146 -4 -291 -1 -482c3 6 19 38 23 44c2 5 23 41 71 132c18 0 113 -35 114 -53l-117 -213c-2 0 -4 0 -6 1c0 -4 138 -122 158 -142c4 -3 7 -7 7 -12c0 -4 -1 -6 -4 -10l-60 -83c-5 -6 -5 -7 -11 -7l-156 160c0 1 -2 -1 -3 -1
v-181c0 -7 -73 -13 -88 -13c-2 0 -15 1 -17 1c-3 1 -6 6 -7 9c-4 43 -1 88 -3 131z" />
    <glyph glyph-name="l" unicode="l" horiz-adv-x="200" 
d="M42 97l-8 760h132c0 -33 4 -64 4 -97v-10l-25 -704c-3 -10 -39 -10 -80 -10h-10c-15 2 -11 50 -13 61z" />
    <glyph glyph-name="m" unicode="m" horiz-adv-x="676" 
d="M43 -20l-12 411c0 121 74 145 128 145h7c55 -2 115 -101 134 -169l3 3l8 16c36 78 81 177 178 177c127 0 140 -90 154 -190c11 -217 3 -239 3 -337c0 -6 0 -13 -10 -13h-83c-2 0 -8 4 -8 6l-15 244c-3 47 9 127 -60 127c-67 0 -93 -163 -100 -173l-139 -23
c-12 38 -17 160 -67 160c-11 0 -16 -11 -19 -51c0 -101 17 -204 17 -299v-18c-2 -8 -6 -12 -13 -13c-30 -1 -65 -7 -97 -7c-1 0 -8 -1 -9 4z" />
    <glyph glyph-name="n" unicode="n" horiz-adv-x="551" 
d="M30 16v525c0 8 9 14 17 14h90c21 0 11 -95 16 -110c101 97 175 104 213 104c86 0 130 -80 136 -159l19 -351c0 -1 -2 -3 -3 -3l-107 -4c-2 1 -6 3 -6 4l-19 261c-33 252 -240 63 -240 -116c0 -56 7 -112 7 -168v-10c-31 -3 -57 -3 -88 -3h-28l-6 7s-1 6 -1 9z" />
    <glyph glyph-name="o" unicode="o" horiz-adv-x="560" 
d="M30 294c0 166 164 333 357 244c104 -65 143 -174 143 -279c0 -96 -61 -191 -165 -232c-54 -21 -124 -16 -181 3c-114 45 -154 168 -154 264zM168 297c0 -34 12 -68 26 -100c16 -39 51 -64 98 -64c83 0 109 79 109 137c0 209 -233 250 -233 27z" />
    <glyph glyph-name="p" unicode="p" horiz-adv-x="547" 
d="M69 -103c-38 604 -38 608 -38 614c-1 3 -1 11 6 11l100 8c1 0 6 -1 7 -2c1 0 4 -3 4 -3l4 -59c28 44 107 74 162 78c5 0 10 1 15 1c111 0 178 -96 187 -211c1 -8 1 -15 1 -22c0 -187 -170 -267 -353 -177c13 -127 14 -147 24 -275c1 -18 4 -69 4 -72l-3 -4s-47 -5 -66 -7
l-38 -4l-4 3c0 1 -6 53 -12 121zM292 417c-67 -5 -155 -89 -95 -173c61 -84 184 -38 184 65c0 4 -1 8 -1 12c-5 57 -10 97 -74 97c-4 0 -9 -1 -14 -1z" />
    <glyph glyph-name="q" unicode="q" horiz-adv-x="510" 
d="M354 -291l-10 97h-97l-6 130l105 8l-8 204c-98 -42 -284 4 -301 113c-41 169 132 345 307 299c7 0 19 -6 25 -12c16 0 -2 36 38 36c19 0 56 5 67 -14c0 -4 1 -26 1 -30c0 -7 -1 -50 -11 -568c2 -17 0 -23 16 -23c22 0 43 4 64 4c8 0 10 -10 10 -16c0 -43 -3 -81 -3 -124
c0 -3 -33 -2 -84 -15l-3 -3l3 -80zM164 308c5 -71 113 -54 166 -39l-3 183h-12c-82 0 -152 -22 -152 -127c0 -5 1 -11 1 -17z" />
    <glyph glyph-name="r" unicode="r" horiz-adv-x="433" 
d="M52 24c-11 4 -19 18 -19 29c0 48 -16 488 32 493c6 0 58 2 94 3l4 -78c58 63 125 97 223 97c6 -7 8 -13 17 -104c-122 -5 -234 -80 -240 -197l-11 -240l-2 -3c-1 -1 -30 -3 -98 0z" />
    <glyph glyph-name="s" unicode="s" horiz-adv-x="458" 
d="M30 128c0 0 72 48 84 48c4 0 6 0 10 -3c36 -42 35 -81 102 -81c39 0 79 34 79 75c0 75 -48 87 -113 97c-57 8 -153 64 -153 127c0 111 95 185 200 185c48 0 102 -3 135 -43l1 -1c6 -7 9 -12 9 -20c0 -1 -1 -5 -1 -5c-10 -19 -47 -88 -61 -88h-7l-7 4
c-25 14 -64 36 -93 36c-22 0 -40 -15 -40 -38c0 -79 253 -22 253 -221c0 -119 -74 -215 -205 -215c-78 0 -155 17 -183 97c-3 8 -10 28 -10 46z" />
    <glyph glyph-name="t" unicode="t" horiz-adv-x="400" 
d="M87 473l18 400c3 3 6 5 133 1c1 -17 5 -68 -25 -414l138 -9c15 -1 19 -11 19 -21c0 -38 -6 -54 -16 -92c0 -4 -6 -3 -10 -3l-137 4c-33 -159 -19 -277 148 -232c0 -24 5 -62 5 -91c0 -15 -33 -15 -47 -15c-134 0 -262 28 -219 346c-5 0 -54 2 -58 3c-2 0 -6 3 -6 3v120
s4 2 6 2z" />
    <glyph glyph-name="u" unicode="u" horiz-adv-x="531" 
d="M30 284c3 81 20 200 20 245l3 4h120c6 0 4 -9 4 -10c0 -77 -11 -152 -11 -228s23 -117 107 -117h4c83 0 100 46 100 131c0 57 -6 114 -6 172c0 22 82 36 99 36h11c15 -18 20 -144 20 -167v-36c0 -96 -6 -163 -84 -229c-76 -43 -173 -39 -260 -16
c-117 32 -127 102 -127 215z" />
    <glyph glyph-name="v" unicode="v" horiz-adv-x="470" 
d="M144 23c-105 478 -114 512 -114 526l145 -8c1 0 2 -8 2 -12c3 -26 49 -342 49 -342c1 0 29 89 33 98c26 71 29 143 56 214c26 1 53 0 78 -1c15 0 22 -1 41 -5c8 -2 5 -10 4 -16c-41 -168 -110 -329 -167 -489c-38 3 -71 1 -109 3c-6 0 -10 -2 -13 4c-3 10 -2 18 -5 28z
" />
    <glyph glyph-name="w" unicode="w" horiz-adv-x="735" 
d="M32 261c7 91 21 184 48 273c12 4 120 14 120 -4c0 -55 -72 -372 -4 -372c41 0 65 49 67 86l11 187l128 -8c14 -1 19 -3 22 -14c0 -20 4 -112 6 -132c2 -45 21 -147 81 -151h5c44 0 50 49 52 85c5 79 -8 161 -2 239c0 13 8 12 20 13c35 -4 82 8 111 -12
c8 -223 -5 -330 -66 -403c-22 -26 -64 -45 -99 -45c-99 0 -164 58 -173 149l-3 3c-12 -62 -73 -160 -149 -160h-4c-165 10 -178 124 -171 266z" />
    <glyph glyph-name="x" unicode="x" horiz-adv-x="598" 
d="M31 107c53 52 116 118 156 177c-49 47 -94 83 -148 124c-2 4 -2 7 -2 12c1 8 41 85 49 100c16 42 135 -62 165 -88l4 -3c3 -3 19 -19 22 -21c0 0 2 -1 3 -1c3 0 70 91 190 211c22 -1 82 -40 82 -64c-1 -33 -75 -110 -103 -144c-10 -9 -48 -56 -57 -66c0 0 -1 -2 -1 -3
c0 -4 1 -7 4 -10c19 -20 106 -117 123 -139l43 -55c5 -5 7 -8 7 -14c0 -17 -81 -76 -93 -87c-6 1 -11 0 -15 6c-58 56 -109 119 -174 171c-23 1 -119 -188 -152 -187c-17 0 -97 76 -103 81z" />
    <glyph glyph-name="y" unicode="y" horiz-adv-x="553" 
d="M77 -87c-10 5 -7 26 -7 32v7c0 26 -2 79 31 79c45 0 88 -3 185 -3c53 0 81 34 87 80c4 26 11 89 7 99c-38 -43 -117 -56 -173 -56c-64 0 -177 26 -177 105v8c0 80 16 159 33 236c2 9 9 30 10 31l7 7h31c32 0 52 0 85 -4c0 -4 2 -10 2 -18c0 -62 -9 -159 -20 -216
c-1 -4 -1 -7 -1 -11c0 -83 200 -51 200 50v7c15 121 18 138 19 154c19 13 93 10 117 10c7 -5 10 -6 10 -13c-6 -41 -16 -202 -20 -259l-2 -28c-6 -111 -14 -253 -148 -288c-59 -7 -118 -15 -177 -15c-33 0 -67 1 -99 6z" />
    <glyph glyph-name="z" unicode="z" horiz-adv-x="530" 
d="M58 101c0 4 0 5 3 9c237 297 247 313 247 340c0 17 -203 -10 -269 -12c-8 38 -13 80 -4 118c93 11 290 14 417 16c13 -38 13 -67 12 -98c-22 -100 -141 -186 -205 -308c86 9 143 3 218 3h11c16 -25 13 -60 6 -121h-12c-103 0 -202 4 -401 -23h-4c-9 0 -19 65 -19 76z" />
    <glyph glyph-name="bar" unicode="|" horiz-adv-x="176" 
d="M54 -3l-24 800c2 3 6 5 9 6c30 2 45 3 71 3c7 0 18 1 24 -3l12 -799v-7c-6 -3 -35 -5 -92 0z" />
    <glyph glyph-name="exclamdown" unicode="&#xa1;" horiz-adv-x="223" 
d="M178 602c0 -195 -9 -388 -17 -582c-1 -3 -3 -15 -3 -17c-7 -20 -83 -13 -119 -15c-1 0 -7 2 -8 3c0 2 -1 11 -1 13c0 83 26 165 64 614c6 1 32 3 41 3c15 0 43 0 43 -19zM193 738c0 -40 -19 -83 -64 -83c-31 0 -52 25 -52 56c0 35 19 81 62 81c33 0 54 -20 54 -54z" />
    <glyph glyph-name="cent" unicode="&#xa2;" horiz-adv-x="418" 
d="M200 313l-2 56c-105 13 -168 68 -168 187c0 87 55 168 161 193l-1 65c1 2 3 3 3 3c13 2 19 2 30 2c2 0 7 1 9 -2v-61c12 2 24 3 36 3c29 0 70 -17 70 -42c0 -9 -23 -58 -35 -58c-16 0 -28 8 -46 8c-8 0 -16 -1 -24 -2l4 -217c23 0 54 2 74 12c6 2 33 21 41 21
c13 0 36 -45 36 -59c0 -34 -115 -55 -146 -55h-5v-54c-2 -2 -14 -3 -37 0zM148 483c10 -14 28 -26 49 -31l-4 199c-25 -15 -43 -37 -55 -61c-14 -26 -10 -81 10 -107z" />
    <glyph glyph-name="sterling" unicode="&#xa3;" horiz-adv-x="619" 
d="M99 11c3 3 6 12 6 32l3 175l-72 2l-3 5v66c-2 2 -3 8 -3 12l77 5c0 60 -8 135 -8 197c0 121 39 266 203 275c60 0 121 -14 161 -56c8 -9 18 -20 18 -30c-18 -17 -33 -35 -45 -59c-5 -6 -6 -8 -11 -8c-11 0 -22 14 -31 19c-184 93 -196 -138 -196 -272v-68l79 -1
c8 -2 -1 -76 -2 -88c0 -4 -12 -6 -13 -6c-17 0 -32 3 -50 3c-4 0 -11 1 -12 -5c4 -19 3 -64 2 -86c1 0 2 -2 4 -2c63 22 125 2 188 -12c70 -15 70 40 101 48c11 0 94 -32 94 -45c-14 -45 -43 -92 -100 -92c-124 0 -255 -18 -378 -18c-6 0 -8 4 -12 9z" />
    <glyph glyph-name="yen" unicode="&#xa5;" horiz-adv-x="601" 
d="M121 271c-2 23 -3 42 -2 63c0 20 4 26 19 27c5 0 24 2 33 0c14 1 36 1 62 1c-1 15 -3 27 -3 28l-7 8c-12 -2 -23 -2 -34 -2c-121 0 -159 96 -159 207v25c0 21 2 129 15 156c39 -2 79 4 118 4h8c2 0 6 -3 6 -4l3 -23v-144c0 -2 -1 -18 -1 -20v-13c1 -42 2 -55 54 -61
l192 19c15 10 16 22 21 38c-1 48 -5 115 -4 167l124 -3c1 -36 5 -78 5 -116v-11c-2 -61 -9 -125 -46 -175c-33 -44 -137 -42 -146 -68v-13c39 -1 75 -2 99 -2c8 -3 9 -8 10 -19l2 -51c0 -5 1 -17 -4 -18c-2 -1 -12 -2 -15 -1c-28 -1 -58 -1 -92 0v-31c41 0 79 -2 105 -2
c8 -3 9 -8 10 -19l2 -51c0 -5 1 -17 -4 -18c-2 -1 -12 -2 -15 -1c-29 -1 -61 -1 -98 0l1 -169l-3 -1l-114 -6c-6 1 -10 0 -13 8l-7 171c-35 0 -73 -1 -116 -2c-2 23 -3 42 -2 63c0 20 4 26 19 27c5 0 24 2 33 0c14 1 37 1 63 1l-2 33c-35 0 -74 -1 -117 -2z" />
    <glyph glyph-name="ordfeminine" unicode="&#xaa;" horiz-adv-x="319" 
d="M183 595c-15 -16 -49 -28 -76 -30c-43 0 -77 34 -77 70v5c0 71 72 89 149 104c0 20 6 64 -31 67c-15 0 -24 -9 -37 -17c0 -1 -2 -1 -3 -1l-50 51c18 37 59 45 102 45c86 0 114 -61 114 -126c0 -36 -7 -71 -7 -107c0 -32 21 -43 22 -57c-10 -14 -33 -34 -56 -38
c-20 0 -40 35 -50 34zM105 647c0 -9 62 -20 65 12c0 11 -18 17 -29 17c-15 0 -36 -15 -36 -29z" />
    <glyph glyph-name="guillemotleft" unicode="&#xab;" horiz-adv-x="588" 
d="M185 165l-140 112c-7 6 -14 11 -14 19c0 4 -1 5 2 8c73 58 146 114 224 169c13 5 24 15 39 15c17 0 46 -39 46 -53c-185 -145 -185 -145 -185 -146c9 -14 25 -21 38 -34l101 -75c0 -19 -32 -53 -53 -53s-42 26 -58 38zM401 167l-140 112c-7 6 -14 11 -14 19c0 4 -1 5 2 8
c73 58 146 114 224 169c13 5 24 15 39 15c17 0 46 -39 46 -53c-185 -145 -185 -145 -185 -146c9 -14 25 -21 38 -34l101 -75c0 -19 -32 -53 -53 -53s-42 26 -58 38z" />
    <glyph glyph-name="ordmasculine" unicode="&#xba;" horiz-adv-x="337" 
d="M162 595c-129 0 -145 102 -124 193c13 56 69 103 136 103c62 0 92 -20 117 -67c42 -83 0 -223 -129 -229zM105 735c0 -20 12 -61 42 -61c60 0 75 42 75 86c0 32 -17 51 -57 53c-46 0 -60 -47 -60 -78z" />
    <glyph glyph-name="guillemotright" unicode="&#xbb;" horiz-adv-x="588" 
d="M327 279l-140 -112c-16 -12 -37 -38 -58 -38s-53 34 -53 53l101 75c13 13 29 20 38 34c0 1 0 1 -185 146c0 14 29 53 46 53c15 0 26 -10 39 -15c78 -55 151 -111 224 -169c3 -3 2 -4 2 -8c0 -8 -7 -13 -14 -19zM543 277l-140 -112c-16 -12 -37 -38 -58 -38s-53 34 -53 53
l101 75c13 13 29 20 38 34c0 1 0 1 -185 146c0 14 29 53 46 53c15 0 26 -10 39 -15c78 -55 151 -111 224 -169c3 -3 2 -4 2 -8c0 -8 -7 -13 -14 -19z" />
    <glyph glyph-name="questiondown" unicode="&#xbf;" horiz-adv-x="352" 
d="M236 655c66 -372 -211 -539 -46 -539c36 0 68 15 98 37c6 0 10 -6 35 -80v-4c0 -35 -93 -64 -119 -68c-107 -16 -227 42 -149 218c8 18 50 99 60 116c30 70 35 150 35 225c0 29 -4 56 -4 84c0 5 0 14 10 14h77c1 0 2 -2 3 -3zM250 813c0 -105 -78 -147 -123 -44
c-21 48 6 88 68 88c30 0 55 -11 55 -44z" />
    <glyph glyph-name="Agrave" unicode="&#xc0;" 
d="M31 -22v5c5 68 10 141 30 546c10 189 60 272 176 272c7 0 15 0 23 -1c105 0 125 -117 128 -199v-5c1 -22 4 -73 -5 -591l-7 -5h-40c-16 0 -32 -1 -50 5c-1 10 -2 57 -15 251h-7c-36 0 -73 -3 -122 -3c-4 -45 -3 -91 5 -275c0 0 -3 -7 -5 -7h-108c-4 0 -3 6 -3 7zM156 401
c0 -12 1 -53 1 -58l2 -5c1 -1 35 -2 107 -3c3 1 3 5 3 8l12 196v17c0 134 -107 167 -119 10c-5 -64 -6 -95 -6 -165zM229 864c-5 0 -10 2 -13 6c-27 40 -111 101 -116 145c0 27 40 58 63 58c20 0 27 -21 39 -36c26 -36 56 -70 84 -105c6 -6 27 -33 31 -39c1 0 1 -4 1 -5
c1 -8 -74 -24 -89 -24z" />
    <glyph glyph-name="Aacute" unicode="&#xc1;" 
d="M31 -22v5c5 68 10 141 30 546c10 189 60 272 176 272c7 0 15 0 23 -1c105 0 125 -117 128 -199v-5c1 -22 4 -73 -5 -591l-7 -5h-40c-16 0 -32 -1 -50 5c-1 10 -2 57 -15 251h-7c-36 0 -73 -3 -122 -3c-4 -45 -3 -91 5 -275c0 0 -3 -7 -5 -7h-108c-4 0 -3 6 -3 7zM156 401
c0 -12 1 -53 1 -58l2 -5c1 -1 35 -2 107 -3c3 1 3 5 3 8l12 196v17c0 134 -107 167 -119 10c-5 -64 -6 -95 -6 -165zM190 864c-15 0 -90 16 -89 24c0 1 0 5 1 5c4 6 25 33 31 39c28 35 58 69 84 105c12 15 19 36 39 36c23 0 63 -31 63 -58c-5 -44 -89 -105 -116 -145
c-3 -4 -8 -6 -13 -6z" />
    <glyph glyph-name="Acircumflex" unicode="&#xc2;" 
d="M31 -22v5c5 68 10 141 30 546c10 189 60 272 176 272c7 0 15 0 23 -1c105 0 125 -117 128 -199v-5c1 -22 4 -73 -5 -591l-7 -5h-40c-16 0 -32 -1 -50 5c-1 10 -2 57 -15 251h-7c-36 0 -73 -3 -122 -3c-4 -45 -3 -91 5 -275c0 0 -3 -7 -5 -7h-108c-4 0 -3 6 -3 7zM156 401
c0 -12 1 -53 1 -58l2 -5c1 -1 35 -2 107 -3c3 1 3 5 3 8l12 196v17c0 134 -107 167 -119 10c-5 -64 -6 -95 -6 -165zM90 843c-1 9 0 5 6 15c31 58 76 105 106 163c7 7 15 12 28 12c32 -1 66 -45 83 -69l62 -96c3 -4 4 -15 4 -16c0 -19 -31 -18 -62 -17h-9c-4 1 -8 1 -12 1
c-16 3 -44 50 -51 63c-48 -59 -42 -68 -125 -68c-10 0 -30 -1 -30 12z" />
    <glyph glyph-name="Atilde" unicode="&#xc3;" 
d="M31 -22v5c5 68 10 141 30 546c10 189 60 272 176 272c7 0 15 0 23 -1c105 0 125 -117 128 -199v-5c1 -22 4 -73 -5 -591l-7 -5h-40c-16 0 -32 -1 -50 5c-1 10 -2 57 -15 251h-7c-36 0 -73 -3 -122 -3c-4 -45 -3 -91 5 -275c0 0 -3 -7 -5 -7h-108c-4 0 -3 6 -3 7zM156 401
c0 -12 1 -53 1 -58l2 -5c1 -1 35 -2 107 -3c3 1 3 5 3 8l12 196v17c0 134 -107 167 -119 10c-5 -64 -6 -95 -6 -165zM45 865c0 38 5 50 17 71c25 41 56 59 108 59c59 0 67 -62 121 -62c26 0 17 62 36 62c12 0 22 0 76 -16c0 -71 -50 -131 -123 -131c-23 0 -48 9 -69 20
c-15 9 -27 28 -46 28c-44 0 -34 -51 -59 -51c-7 0 -57 14 -61 20z" />
    <glyph glyph-name="Adieresis" unicode="&#xc4;" 
d="M31 -22v5c5 68 10 141 30 546c10 189 60 272 176 272c7 0 15 0 23 -1c105 0 125 -117 128 -199v-5c1 -22 4 -73 -5 -591l-7 -5h-40c-16 0 -32 -1 -50 5c-1 10 -2 57 -15 251h-7c-36 0 -73 -3 -122 -3c-4 -45 -3 -91 5 -275c0 0 -3 -7 -5 -7h-108c-4 0 -3 6 -3 7zM156 401
c0 -12 1 -53 1 -58l2 -5c1 -1 35 -2 107 -3c3 1 3 5 3 8l12 196v17c0 134 -107 167 -119 10c-5 -64 -6 -95 -6 -165zM89 892c0 26 15 61 50 61s60 -20 60 -50c0 -31 -6 -45 -41 -59h-16c-36 0 -53 16 -53 48zM285 898c0 26 15 61 50 61s60 -20 60 -50c0 -31 -6 -45 -41 -59
h-16c-36 0 -53 16 -53 48z" />
    <glyph glyph-name="Aring" unicode="&#xc5;" 
d="M31 -22v5c5 68 10 141 30 546c10 189 60 272 176 272c7 0 15 0 23 -1c105 0 125 -117 128 -199v-5c1 -22 4 -73 -5 -591l-7 -5h-40c-16 0 -32 -1 -50 5c-1 10 -2 57 -15 251h-7c-36 0 -73 -3 -122 -3c-4 -45 -3 -91 5 -275c0 0 -3 -7 -5 -7h-108c-4 0 -3 6 -3 7zM156 401
c0 -12 1 -53 1 -58l2 -5c1 -1 35 -2 107 -3c3 1 3 5 3 8l12 196v17c0 134 -107 167 -119 10c-5 -64 -6 -95 -6 -165zM118 964c0 68 55 147 132 147c83 0 116 -59 116 -137c0 -72 -46 -146 -125 -146c-82 0 -123 59 -123 136zM225 968c0 -12 9 -27 23 -27c15 0 23 15 23 30
c0 5 -6 36 -16 36c-19 0 -30 -21 -30 -39z" />
    <glyph glyph-name="AE" unicode="&#xc6;" horiz-adv-x="617" 
d="M282 57l-14 199h-4c-36 0 -73 -3 -122 -3c-4 -45 -3 -91 5 -275c0 0 -3 -7 -5 -7h-108c-4 0 -3 6 -3 7v5c5 68 10 141 30 546c6 118 27 272 179 272h2c13 0 48 0 225 13c5 0 30 3 33 -6c2 -31 10 -60 10 -90v-14c-7 -12 -135 -13 -159 -20l9 -260l158 24c1 0 4 1 5 1
l22 -106l-168 -21v-13c0 -51 4 -106 9 -155c0 -10 2 -24 14 -24c17 0 132 20 161 21c10 0 12 -10 13 -18c4 -20 12 -62 12 -86c0 -2 2 -10 -3 -11l-277 -26c-1 0 -4 -1 -5 -1c-18 0 -18 39 -19 48zM156 401c0 -12 1 -53 1 -58l2 -5c1 -1 34 -2 103 -3l-23 329
c-31 20 -70 -7 -77 -98c-5 -64 -6 -95 -6 -165z" />
    <glyph glyph-name="Ccedilla" unicode="&#xc7;" horiz-adv-x="437" 
d="M199 -113c-13 0 -66 18 -65 27c0 19 55 96 79 131c-278 123 -222 735 66 742c22 0 45 -9 66 -18c1 -1 5 -3 5 -3v-99h-19c-197 0 -210 -444 -32 -513c34 -13 70 -10 108 -8v-103s-7 -4 -11 -5c-25 -10 -50 -14 -77 -14h-4c-20 -50 -77 -137 -116 -137z" />
    <glyph glyph-name="Egrave" unicode="&#xc8;" horiz-adv-x="415" 
d="M80 37l-50 719v20l235 18c5 0 30 3 33 -6c2 -31 10 -60 10 -90v-14c-7 -12 -135 -13 -159 -20v-9c0 -9 3 -247 27 -247l140 20c1 0 4 1 5 1l22 -106l-168 -21v-13c0 -51 4 -106 9 -155c0 -10 2 -24 14 -24c17 0 132 20 161 21c10 0 12 -10 13 -18c4 -20 12 -62 12 -86
c0 -2 2 -10 -3 -11c-52 -1 -98 -13 -253 -23c-1 -1 -23 -3 -24 -3s-4 -1 -5 -1c-18 0 -18 39 -19 48zM227 864c-5 0 -10 2 -13 6c-27 40 -111 101 -116 145c0 27 40 58 63 58c20 0 27 -21 39 -36c26 -36 56 -70 84 -105c6 -6 27 -33 31 -39c1 0 1 -4 1 -5
c1 -8 -74 -24 -89 -24z" />
    <glyph glyph-name="Eacute" unicode="&#xc9;" horiz-adv-x="415" 
d="M80 37l-50 719v20l235 18c5 0 30 3 33 -6c2 -31 10 -60 10 -90v-14c-7 -12 -135 -13 -159 -20v-9c0 -9 3 -247 27 -247l140 20c1 0 4 1 5 1l22 -106l-168 -21v-13c0 -51 4 -106 9 -155c0 -10 2 -24 14 -24c17 0 132 20 161 21c10 0 12 -10 13 -18c4 -20 12 -62 12 -86
c0 -2 2 -10 -3 -11c-52 -1 -98 -13 -253 -23c-1 -1 -23 -3 -24 -3s-4 -1 -5 -1c-18 0 -18 39 -19 48zM188 864c-15 0 -90 16 -89 24c0 1 0 5 1 5c4 6 25 33 31 39c28 35 58 69 84 105c12 15 19 36 39 36c23 0 63 -31 63 -58c-5 -44 -89 -105 -116 -145c-3 -4 -8 -6 -13 -6z
" />
    <glyph glyph-name="Ecircumflex" unicode="&#xca;" horiz-adv-x="415" 
d="M80 37l-50 719v20l235 18c5 0 30 3 33 -6c2 -31 10 -60 10 -90v-14c-7 -12 -135 -13 -159 -20v-9c0 -9 3 -247 27 -247l140 20c1 0 4 1 5 1l22 -106l-168 -21v-13c0 -51 4 -106 9 -155c0 -10 2 -24 14 -24c17 0 132 20 161 21c10 0 12 -10 13 -18c4 -20 12 -62 12 -86
c0 -2 2 -10 -3 -11c-52 -1 -98 -13 -253 -23c-1 -1 -23 -3 -24 -3s-4 -1 -5 -1c-18 0 -18 39 -19 48zM15 847c-1 9 0 5 6 15c31 58 76 105 106 163c7 7 15 12 28 12c32 -1 66 -45 83 -69l62 -96c3 -4 4 -15 4 -16c0 -19 -31 -18 -62 -17h-9c-4 1 -8 1 -12 1
c-16 3 -44 50 -51 63c-48 -59 -42 -68 -125 -68c-10 0 -30 -1 -30 12z" />
    <glyph glyph-name="Edieresis" unicode="&#xcb;" horiz-adv-x="415" 
d="M80 37l-50 719v20l235 18c5 0 30 3 33 -6c2 -31 10 -60 10 -90v-14c-7 -12 -135 -13 -159 -20v-9c0 -9 3 -247 27 -247l140 20c1 0 4 1 5 1l22 -106l-168 -21v-13c0 -51 4 -106 9 -155c0 -10 2 -24 14 -24c17 0 132 20 161 21c10 0 12 -10 13 -18c4 -20 12 -62 12 -86
c0 -2 2 -10 -3 -11c-52 -1 -98 -13 -253 -23c-1 -1 -23 -3 -24 -3s-4 -1 -5 -1c-18 0 -18 39 -19 48zM-14 898c0 26 15 61 50 61s60 -20 60 -50c0 -31 -6 -45 -41 -59h-16c-36 0 -53 16 -53 48zM182 904c0 26 15 61 50 61s60 -20 60 -50c0 -31 -6 -45 -41 -59h-16
c-36 0 -53 16 -53 48z" />
    <glyph glyph-name="Igrave" unicode="&#xcc;" horiz-adv-x="222" 
d="M30 700c0 16 0 23 3 40c11 14 48 18 117 22c13 -4 18 -18 20 -32c1 72 22 -471 22 -679v-14l-4 -3c0 -1 -20 -3 -28 -3c-27 -5 -55 2 -82 -3h-4c-21 75 -38 461 -44 658v14zM131 864c-5 0 -10 2 -13 6c-27 40 -111 101 -116 145c0 27 40 58 63 58c20 0 27 -21 39 -36
c26 -36 56 -70 84 -105c6 -6 27 -33 31 -39c1 0 1 -4 1 -5c1 -8 -74 -24 -89 -24z" />
    <glyph glyph-name="Iacute" unicode="&#xcd;" horiz-adv-x="222" 
d="M30 700c0 16 0 23 3 40c11 14 48 18 117 22c13 -4 18 -18 20 -32c1 72 22 -471 22 -679v-14l-4 -3c0 -1 -20 -3 -28 -3c-27 -5 -55 2 -82 -3h-4c-21 75 -38 461 -44 658v14zM92 864c-15 0 -90 16 -89 24c0 1 0 5 1 5c4 6 25 33 31 39c28 35 58 69 84 105
c12 15 19 36 39 36c23 0 63 -31 63 -58c-5 -44 -89 -105 -116 -145c-3 -4 -8 -6 -13 -6z" />
    <glyph glyph-name="Icircumflex" unicode="&#xce;" horiz-adv-x="222" 
d="M30 700c0 16 0 23 3 40c11 14 48 18 117 22c13 -4 18 -18 20 -32c1 72 22 -471 22 -679v-14l-4 -3c0 -1 -20 -3 -28 -3c-27 -5 -55 2 -82 -3h-4c-21 75 -38 461 -44 658v14zM-33 885c-1 9 0 5 6 15c31 58 76 105 106 163c7 7 15 12 28 12c32 -1 66 -45 83 -69l62 -96
c3 -4 4 -15 4 -16c0 -19 -31 -18 -62 -17h-9c-4 1 -8 1 -12 1c-16 3 -44 50 -51 63c-48 -59 -42 -68 -125 -68c-10 0 -30 -1 -30 12z" />
    <glyph glyph-name="Idieresis" unicode="&#xcf;" horiz-adv-x="222" 
d="M30 700c0 16 0 23 3 40c11 14 48 18 117 22c13 -4 18 -18 20 -32c1 72 22 -471 22 -679v-14l-4 -3c0 -1 -20 -3 -28 -3c-27 -5 -55 2 -82 -3h-4c-21 75 -38 461 -44 658v14zM-42 918c0 26 15 61 50 61s60 -20 60 -50c0 -31 -6 -45 -41 -59h-16c-36 0 -53 16 -53 48z
M154 924c0 26 15 61 50 61s60 -20 60 -50c0 -31 -6 -45 -41 -59h-16c-36 0 -53 16 -53 48z" />
    <glyph glyph-name="Eth" unicode="&#xd0;" horiz-adv-x="525" 
d="M81 10v78c0 98 5 196 5 308c-3 10 -38 8 -46 8c-15 10 -8 68 -5 88c5 29 29 25 54 23l2 254c0 28 43 29 74 29h15c67 0 146 -20 196 -68c44 -37 71 -88 95 -154c41 -155 28 -315 -43 -466c-48 -102 -238 -110 -339 -105c-3 1 -6 2 -8 5zM203 169v-34c0 -2 3 -6 5 -8
c135 0 173 91 173 218c0 110 -9 286 -144 316c-1 -1 -5 -4 -5 -5c-5 -23 -6 -105 -5 -147c13 -8 42 -6 46 -26c-1 -33 2 -62 -3 -93c0 -2 -5 -10 -7 -10h-46z" />
    <glyph glyph-name="Ntilde" unicode="&#xd1;" horiz-adv-x="571" 
d="M73 147l-36 537c-1 6 -6 83 -7 102v7c0 3 3 8 3 8c128 -9 128 -9 129 -9c37 0 165 -326 243 -483c8 36 1 486 32 486c11 0 45 1 101 -9c3 -5 3 -7 3 -13v-4c-8 -60 -8 -113 -11 -603v-68c-1 -18 -3 -63 -3 -63l-3 -3c-27 -1 -57 -4 -87 3l-283 549c-1 0 -3 -2 -3 -3
c0 -27 4 -10 58 -543v-12c-10 -8 -25 0 -119 -6l-3 3c-1 2 -11 89 -14 124zM106 881c0 38 5 50 17 71c25 41 56 59 108 59c59 0 67 -62 121 -62c26 0 17 62 36 62c12 0 22 0 76 -16c0 -71 -50 -131 -123 -131c-23 0 -48 9 -69 20c-15 9 -27 28 -46 28c-44 0 -34 -51 -59 -51
c-7 0 -57 14 -61 20z" />
    <glyph glyph-name="Ograve" unicode="&#xd2;" horiz-adv-x="493" 
d="M168 763c30 25 66 31 108 31c159 0 193 -194 186 -411c-5 -145 -21 -404 -216 -404c-94 0 -185 92 -201 190c-16 100 -19 203 -6 309c13 110 42 210 129 285zM152 324c0 -97 1 -183 61 -214c54 -28 95 20 109 65c3 9 13 50 30 252v18c0 432 -200 259 -200 -85v-36z
M266 864c-5 0 -10 2 -13 6c-27 40 -111 101 -116 145c0 27 40 58 63 58c20 0 27 -21 39 -36c26 -36 56 -70 84 -105c6 -6 27 -33 31 -39c1 0 1 -4 1 -5c1 -8 -74 -24 -89 -24z" />
    <glyph glyph-name="Oacute" unicode="&#xd3;" horiz-adv-x="493" 
d="M168 763c30 25 66 31 108 31c159 0 193 -194 186 -411c-5 -145 -21 -404 -216 -404c-94 0 -185 92 -201 190c-16 100 -19 203 -6 309c13 110 42 210 129 285zM152 324c0 -97 1 -183 61 -214c54 -28 95 20 109 65c3 9 13 50 30 252v18c0 432 -200 259 -200 -85v-36z
M227 864c-15 0 -90 16 -89 24c0 1 0 5 1 5c4 6 25 33 31 39c28 35 58 69 84 105c12 15 19 36 39 36c23 0 63 -31 63 -58c-5 -44 -89 -105 -116 -145c-3 -4 -8 -6 -13 -6z" />
    <glyph glyph-name="Ocircumflex" unicode="&#xd4;" horiz-adv-x="493" 
d="M168 763c30 25 66 31 108 31c159 0 193 -194 186 -411c-5 -145 -21 -404 -216 -404c-94 0 -185 92 -201 190c-16 100 -19 203 -6 309c13 110 42 210 129 285zM152 324c0 -97 1 -183 61 -214c54 -28 95 20 109 65c3 9 13 50 30 252v18c0 432 -200 259 -200 -85v-36z
M114 851c-1 9 0 5 6 15c31 58 76 105 106 163c7 7 15 12 28 12c32 -1 66 -45 83 -69l62 -96c3 -4 4 -15 4 -16c0 -19 -31 -18 -62 -17h-9c-4 1 -8 1 -12 1c-16 3 -44 50 -51 63c-48 -59 -42 -68 -125 -68c-10 0 -30 -1 -30 12z" />
    <glyph glyph-name="Otilde" unicode="&#xd5;" horiz-adv-x="493" 
d="M168 763c30 25 66 31 108 31c159 0 193 -194 186 -411c-5 -145 -21 -404 -216 -404c-94 0 -185 92 -201 190c-16 100 -19 203 -6 309c13 110 42 210 129 285zM152 324c0 -97 1 -183 61 -214c54 -28 95 20 109 65c3 9 13 50 30 252v18c0 432 -200 259 -200 -85v-36z
M87 859c0 38 5 50 17 71c25 41 56 59 108 59c59 0 67 -62 121 -62c26 0 17 62 36 62c12 0 22 0 76 -16c0 -71 -50 -131 -123 -131c-23 0 -48 9 -69 20c-15 9 -27 28 -46 28c-44 0 -34 -51 -59 -51c-7 0 -57 14 -61 20z" />
    <glyph glyph-name="Odieresis" unicode="&#xd6;" horiz-adv-x="493" 
d="M168 763c30 25 66 31 108 31c159 0 193 -194 186 -411c-5 -145 -21 -404 -216 -404c-94 0 -185 92 -201 190c-16 100 -19 203 -6 309c13 110 42 210 129 285zM152 324c0 -97 1 -183 61 -214c54 -28 95 20 109 65c3 9 13 50 30 252v18c0 432 -200 259 -200 -85v-36z
M113 876c0 26 15 61 50 61s60 -20 60 -50c0 -31 -6 -45 -41 -59h-16c-36 0 -53 16 -53 48zM309 882c0 26 15 61 50 61s60 -20 60 -50c0 -31 -6 -45 -41 -59h-16c-36 0 -53 16 -53 48z" />
    <glyph glyph-name="Oslash" unicode="&#xd8;" horiz-adv-x="552" 
d="M194 763c30 25 66 31 108 31c60 0 103 -29 132 -76l12 19c4 1 7 1 10 1c12 -5 60 -26 66 -38l-51 -78c16 -68 20 -152 17 -239c-5 -145 -21 -404 -216 -404c-62 0 -123 40 -162 96l-14 -22l-4 -6c-5 0 -27 10 -62 37l44 69l-3 16c-16 100 -19 203 -6 309
c13 110 42 210 129 285zM378 445c0 12 0 24 -1 35l-191 -290c8 -37 23 -65 53 -80c54 -28 95 20 109 65c3 9 13 50 30 252v18zM178 316l186 292c-46 208 -186 40 -186 -248v-44z" />
    <glyph glyph-name="Ugrave" unicode="&#xd9;" horiz-adv-x="523" 
d="M30 449c10 278 14 308 16 318c1 10 5 37 22 37c36 -12 78 -12 116 -12l3 -4s1 -8 1 -11c0 -4 -1 -15 -1 -17c-18 -122 -35 -324 -10 -495c8 -51 32 -113 95 -113c17 0 34 0 47 13c41 41 50 132 50 184c0 67 -2 140 -4 207c-1 58 -9 115 -9 172c0 5 4 16 10 17l91 12
c1 1 7 3 9 3c6 0 14 -5 16 -11c0 1 1 2 1 2c6 0 51 -378 -27 -602c-30 -85 -84 -119 -174 -119h-14c-116 0 -194 35 -216 160c-16 87 -22 171 -22 259zM281 864c-5 0 -10 2 -13 6c-27 40 -111 101 -116 145c0 27 40 58 63 58c20 0 27 -21 39 -36c26 -36 56 -70 84 -105
c6 -6 27 -33 31 -39c1 0 1 -4 1 -5c1 -8 -74 -24 -89 -24z" />
    <glyph glyph-name="Uacute" unicode="&#xda;" horiz-adv-x="523" 
d="M30 449c10 278 14 308 16 318c1 10 5 37 22 37c36 -12 78 -12 116 -12l3 -4s1 -8 1 -11c0 -4 -1 -15 -1 -17c-18 -122 -35 -324 -10 -495c8 -51 32 -113 95 -113c17 0 34 0 47 13c41 41 50 132 50 184c0 67 -2 140 -4 207c-1 58 -9 115 -9 172c0 5 4 16 10 17l91 12
c1 1 7 3 9 3c6 0 14 -5 16 -11c0 1 1 2 1 2c6 0 51 -378 -27 -602c-30 -85 -84 -119 -174 -119h-14c-116 0 -194 35 -216 160c-16 87 -22 171 -22 259zM242 864c-15 0 -90 16 -89 24c0 1 0 5 1 5c4 6 25 33 31 39c28 35 58 69 84 105c12 15 19 36 39 36c23 0 63 -31 63 -58
c-5 -44 -89 -105 -116 -145c-3 -4 -8 -6 -13 -6z" />
    <glyph glyph-name="Ucircumflex" unicode="&#xdb;" horiz-adv-x="523" 
d="M30 449c10 278 14 308 16 318c1 10 5 37 22 37c36 -12 78 -12 116 -12l3 -4s1 -8 1 -11c0 -4 -1 -15 -1 -17c-18 -122 -35 -324 -10 -495c8 -51 32 -113 95 -113c17 0 34 0 47 13c41 41 50 132 50 184c0 67 -2 140 -4 207c-1 58 -9 115 -9 172c0 5 4 16 10 17l91 12
c1 1 7 3 9 3c6 0 14 -5 16 -11c0 1 1 2 1 2c6 0 51 -378 -27 -602c-30 -85 -84 -119 -174 -119h-14c-116 0 -194 35 -216 160c-16 87 -22 171 -22 259zM117 885c-1 9 0 5 6 15c31 58 76 105 106 163c7 7 15 12 28 12c32 -1 66 -45 83 -69l62 -96c3 -4 4 -15 4 -16
c0 -19 -31 -18 -62 -17h-9c-4 1 -8 1 -12 1c-16 3 -44 50 -51 63c-48 -59 -42 -68 -125 -68c-10 0 -30 -1 -30 12z" />
    <glyph glyph-name="Udieresis" unicode="&#xdc;" horiz-adv-x="523" 
d="M30 449c10 278 14 308 16 318c1 10 5 37 22 37c36 -12 78 -12 116 -12l3 -4s1 -8 1 -11c0 -4 -1 -15 -1 -17c-18 -122 -35 -324 -10 -495c8 -51 32 -113 95 -113c17 0 34 0 47 13c41 41 50 132 50 184c0 67 -2 140 -4 207c-1 58 -9 115 -9 172c0 5 4 16 10 17l91 12
c1 1 7 3 9 3c6 0 14 -5 16 -11c0 1 1 2 1 2c6 0 51 -378 -27 -602c-30 -85 -84 -119 -174 -119h-14c-116 0 -194 35 -216 160c-16 87 -22 171 -22 259zM304 924c0 26 15 61 50 61s60 -20 60 -50c0 -31 -6 -45 -41 -59h-16c-36 0 -53 16 -53 48zM108 918c0 26 15 61 50 61
s60 -20 60 -50c0 -31 -6 -45 -41 -59h-16c-36 0 -53 16 -53 48z" />
    <glyph glyph-name="Yacute" unicode="&#xdd;" horiz-adv-x="601" 
d="M250 -20c-2 40 -11 306 -15 349c0 17 -4 60 -5 61l-7 8c-12 -2 -23 -2 -34 -2c-121 0 -159 96 -159 207v25c0 21 2 129 15 156c39 -2 79 4 118 4h8c2 0 6 -3 6 -4l3 -23v-144c0 -2 -1 -18 -1 -20v-13c1 -42 2 -55 54 -61l192 19c15 10 16 22 21 38c-1 48 -5 115 -4 167
l124 -3c1 -36 5 -78 5 -116v-11c-2 -61 -9 -125 -46 -175c-33 -44 -137 -42 -146 -68l1 -395l-3 -1l-114 -6c-6 1 -10 0 -13 8zM281 864c-15 0 -90 16 -89 24c0 1 0 5 1 5c4 6 25 33 31 39c28 35 58 69 84 105c12 15 19 36 39 36c23 0 63 -31 63 -58
c-5 -44 -89 -105 -116 -145c-3 -4 -8 -6 -13 -6z" />
    <glyph glyph-name="Thorn" unicode="&#xde;" horiz-adv-x="434" 
d="M30 -8l4 761c1 17 3 58 3 58l3 2h110v-182c0 -3 2 -14 3 -16l4 -3c58 6 134 7 183 -29c144 -106 26 -382 -185 -382c-7 0 -13 0 -20 1c0 -70 9 -139 10 -213h-111zM145 508l2 -177c62 0 126 43 126 104v4c0 34 0 72 -46 72c-20 0 -61 -4 -82 -3z" />
    <glyph glyph-name="germandbls" unicode="&#xdf;" horiz-adv-x="533" 
d="M44 -9l-3 3l-10 482c0 47 -1 93 -1 142c0 109 66 181 145 181h5c206 0 197 -231 160 -291c-94 -156 163 -97 163 -282c0 -66 -23 -169 -90 -205c-21 -12 -65 -33 -93 -33c-19 0 -45 85 -45 101c0 5 0 9 4 13c174 98 103 150 -71 268c-31 21 94 284 4 284
c-6 0 -13 -1 -21 -3c-22 -6 -28 -36 -30 -52v-501c0 -8 6 -70 6 -78c0 -2 1 -14 1 -17s-1 -12 -1 -12l-3 -3c-36 -9 -85 1 -120 3z" />
    <glyph glyph-name="agrave" unicode="&#xe0;" horiz-adv-x="471" 
d="M30 109v7c0 96 47 177 146 212c39 14 106 18 132 18c12 0 -8 124 -73 124c-54 0 -88 -44 -125 -72c0 0 -72 58 -72 60c0 10 15 24 21 33c65 66 126 88 207 88c134 0 167 -111 171 -217v-9c5 -104 5 -211 0 -315c-3 -10 -19 -29 -83 -36h-4c-37 0 -8 41 -30 51
c-15 -11 -20 -23 -38 -33c-38 -25 -89 -28 -136 -28c-75 0 -113 57 -116 117zM148 119c6 -45 163 3 163 19v25c0 34 -1 87 -18 87c-153 0 -146 -110 -145 -131zM255 653c-5 0 -10 2 -13 6c-27 40 -111 101 -116 145c0 27 40 58 63 58c20 0 27 -21 39 -36
c26 -36 56 -70 84 -105c6 -6 27 -33 31 -39c1 0 1 -4 1 -5c1 -8 -74 -24 -89 -24z" />
    <glyph glyph-name="aacute" unicode="&#xe1;" horiz-adv-x="471" 
d="M30 109v7c0 96 47 177 146 212c39 14 106 18 132 18c12 0 -8 124 -73 124c-54 0 -88 -44 -125 -72c0 0 -72 58 -72 60c0 10 15 24 21 33c65 66 126 88 207 88c134 0 167 -111 171 -217v-9c5 -104 5 -211 0 -315c-3 -10 -19 -29 -83 -36h-4c-37 0 -8 41 -30 51
c-15 -11 -20 -23 -38 -33c-38 -25 -89 -28 -136 -28c-75 0 -113 57 -116 117zM148 119c6 -45 163 3 163 19v25c0 34 -1 87 -18 87c-153 0 -146 -110 -145 -131zM216 653c-15 0 -90 16 -89 24c0 1 0 5 1 5c4 6 25 33 31 39c28 35 58 69 84 105c12 15 19 36 39 36
c23 0 63 -31 63 -58c-5 -44 -89 -105 -116 -145c-3 -4 -8 -6 -13 -6z" />
    <glyph glyph-name="acircumflex" unicode="&#xe2;" horiz-adv-x="471" 
d="M30 109v7c0 96 47 177 146 212c39 14 106 18 132 18c12 0 -8 124 -73 124c-54 0 -88 -44 -125 -72c0 0 -72 58 -72 60c0 10 15 24 21 33c65 66 126 88 207 88c134 0 167 -111 171 -217v-9c5 -104 5 -211 0 -315c-3 -10 -19 -29 -83 -36h-4c-37 0 -8 41 -30 51
c-15 -11 -20 -23 -38 -33c-38 -25 -89 -28 -136 -28c-75 0 -113 57 -116 117zM148 119c6 -45 163 3 163 19v25c0 34 -1 87 -18 87c-153 0 -146 -110 -145 -131zM91 674c-1 9 0 5 6 15c31 58 76 105 106 163c7 7 15 12 28 12c32 -1 66 -45 83 -69l62 -96c3 -4 4 -15 4 -16
c0 -19 -31 -18 -62 -17h-9c-4 1 -8 1 -12 1c-16 3 -44 50 -51 63c-48 -59 -42 -68 -125 -68c-10 0 -30 -1 -30 12z" />
    <glyph glyph-name="atilde" unicode="&#xe3;" horiz-adv-x="471" 
d="M30 109v7c0 96 47 177 146 212c39 14 106 18 132 18c12 0 -8 124 -73 124c-54 0 -88 -44 -125 -72c0 0 -72 58 -72 60c0 10 15 24 21 33c65 66 126 88 207 88c134 0 167 -111 171 -217v-9c5 -104 5 -211 0 -315c-3 -10 -19 -29 -83 -36h-4c-37 0 -8 41 -30 51
c-15 -11 -20 -23 -38 -33c-38 -25 -89 -28 -136 -28c-75 0 -113 57 -116 117zM148 119c6 -45 163 3 163 19v25c0 34 -1 87 -18 87c-153 0 -146 -110 -145 -131zM56 670c0 38 5 50 17 71c25 41 56 59 108 59c59 0 67 -62 121 -62c26 0 17 62 36 62c12 0 22 0 76 -16
c0 -71 -50 -131 -123 -131c-23 0 -48 9 -69 20c-15 9 -27 28 -46 28c-44 0 -34 -51 -59 -51c-7 0 -57 14 -61 20z" />
    <glyph glyph-name="adieresis" unicode="&#xe4;" horiz-adv-x="471" 
d="M30 109v7c0 96 47 177 146 212c39 14 106 18 132 18c12 0 -8 124 -73 124c-54 0 -88 -44 -125 -72c0 0 -72 58 -72 60c0 10 15 24 21 33c65 66 126 88 207 88c134 0 167 -111 171 -217v-9c5 -104 5 -211 0 -315c-3 -10 -19 -29 -83 -36h-4c-37 0 -8 41 -30 51
c-15 -11 -20 -23 -38 -33c-38 -25 -89 -28 -136 -28c-75 0 -113 57 -116 117zM148 119c6 -45 163 3 163 19v25c0 34 -1 87 -18 87c-153 0 -146 -110 -145 -131zM82 707c0 26 15 61 50 61s60 -20 60 -50c0 -31 -6 -45 -41 -59h-16c-36 0 -53 16 -53 48zM278 713
c0 26 15 61 50 61s60 -20 60 -50c0 -31 -6 -45 -41 -59h-16c-36 0 -53 16 -53 48z" />
    <glyph glyph-name="aring" unicode="&#xe5;" horiz-adv-x="471" 
d="M30 109v7c0 96 47 177 146 212c39 14 106 18 132 18c12 0 -8 124 -73 124c-54 0 -88 -44 -125 -72c0 0 -72 58 -72 60c0 10 15 24 21 33c65 66 126 88 207 88c134 0 167 -111 171 -217v-9c5 -104 5 -211 0 -315c-3 -10 -19 -29 -83 -36h-4c-37 0 -8 41 -30 51
c-15 -11 -20 -23 -38 -33c-38 -25 -89 -28 -136 -28c-75 0 -113 57 -116 117zM148 119c6 -45 163 3 163 19v25c0 34 -1 87 -18 87c-153 0 -146 -110 -145 -131zM111 767c0 68 55 147 132 147c83 0 116 -59 116 -137c0 -72 -46 -146 -125 -146c-82 0 -123 59 -123 136z
M218 771c0 -12 9 -27 23 -27c15 0 23 15 23 30c0 5 -6 36 -16 36c-19 0 -30 -21 -30 -39z" />
    <glyph glyph-name="ae" unicode="&#xe6;" horiz-adv-x="775" 
d="M483 2c-55 2 -112 -8 -163 51c-15 -11 -20 -23 -38 -33c-38 -25 -89 -28 -136 -28c-75 0 -113 57 -116 117v7c0 96 47 177 146 212c39 14 106 18 132 18c12 0 -8 124 -73 124c-54 0 -88 -44 -125 -72c0 0 -72 58 -72 60c0 10 15 24 21 33c65 66 126 88 207 88
c68 0 110 -29 135 -71c29 23 66 39 111 46c170 24 207 -35 227 -179l6 -40c-57 -37 -121 -29 -294 -67c-1 0 -7 -6 -8 -9s-2 -6 -3 -15v-20c1 -16 3 -39 8 -74c6 -41 47 -56 86 -51c48 7 102 65 142 65c17 0 54 -41 56 -56v-5c-68 -92 -139 -107 -249 -101zM148 119
c6 -45 163 3 163 19v25c0 10 0 22 -1 34l-3 22c-1 6 -2 11 -2 17c-3 8 -7 14 -12 14c-153 0 -146 -110 -145 -131zM554 465c-28 -4 -64 -16 -83 -37c-13 -12 -33 -48 -33 -69v-4l9 2c1 0 3 1 4 1c27 4 55 7 172 33c0 0 0 1 -1 4c-2 12 -10 44 -10 45c-9 30 -30 29 -58 25z
" />
    <glyph glyph-name="ccedilla" unicode="&#xe7;" horiz-adv-x="501" 
d="M203 -125c-13 0 -66 18 -65 27c0 19 58 100 81 134c-120 22 -188 100 -188 227c0 2 1 9 1 9c-13 162 88 318 292 318c35 0 86 -23 86 -59c0 -14 -28 -84 -43 -84c-20 0 -35 12 -57 12c-76 0 -120 -52 -146 -110c-17 -37 -12 -116 12 -153c18 -32 62 -50 101 -51h9
c28 0 66 4 90 17c8 4 41 31 51 31c16 0 44 -64 44 -85c0 -38 -89 -65 -145 -75c-7 -39 -77 -158 -123 -158z" />
    <glyph glyph-name="egrave" unicode="&#xe8;" horiz-adv-x="502" 
d="M210 -8c-125 6 -162 121 -176 217c-19 135 30 310 205 335c170 24 207 -35 227 -179l6 -40c-57 -37 -121 -29 -294 -67c-1 0 -7 -6 -8 -9c-2 -6 -6 -23 5 -109c6 -41 47 -56 86 -51c48 7 102 65 142 65c17 0 54 -41 56 -56v-5c-68 -92 -139 -107 -249 -101zM281 455
c-28 -4 -64 -16 -83 -37c-13 -12 -33 -48 -33 -69v-4l9 2c1 0 3 1 4 1c27 4 55 7 172 33c0 0 0 1 -1 4c-2 12 -10 44 -10 45c-9 30 -30 29 -58 25zM270 593c-5 0 -10 2 -13 6c-27 40 -111 101 -116 145c0 27 40 58 63 58c20 0 27 -21 39 -36c26 -36 56 -70 84 -105
c6 -6 27 -33 31 -39c1 0 1 -4 1 -5c1 -8 -74 -24 -89 -24z" />
    <glyph glyph-name="eacute" unicode="&#xe9;" horiz-adv-x="502" 
d="M210 -8c-125 6 -162 121 -176 217c-19 135 30 310 205 335c170 24 207 -35 227 -179l6 -40c-57 -37 -121 -29 -294 -67c-1 0 -7 -6 -8 -9c-2 -6 -6 -23 5 -109c6 -41 47 -56 86 -51c48 7 102 65 142 65c17 0 54 -41 56 -56v-5c-68 -92 -139 -107 -249 -101zM281 455
c-28 -4 -64 -16 -83 -37c-13 -12 -33 -48 -33 -69v-4l9 2c1 0 3 1 4 1c27 4 55 7 172 33c0 0 0 1 -1 4c-2 12 -10 44 -10 45c-9 30 -30 29 -58 25zM215 589c-15 0 -90 16 -89 24c0 1 0 5 1 5c4 6 25 33 31 39c28 35 58 69 84 105c12 15 19 36 39 36c23 0 63 -31 63 -58
c-5 -44 -89 -105 -116 -145c-3 -4 -8 -6 -13 -6z" />
    <glyph glyph-name="ecircumflex" unicode="&#xea;" horiz-adv-x="502" 
d="M210 -8c-125 6 -162 121 -176 217c-19 135 30 310 205 335c170 24 207 -35 227 -179l6 -40c-57 -37 -121 -29 -294 -67c-1 0 -7 -6 -8 -9c-2 -6 -6 -23 5 -109c6 -41 47 -56 86 -51c48 7 102 65 142 65c17 0 54 -41 56 -56v-5c-68 -92 -139 -107 -249 -101zM281 455
c-28 -4 -64 -16 -83 -37c-13 -12 -33 -48 -33 -69v-4l9 2c1 0 3 1 4 1c27 4 55 7 172 33c0 0 0 1 -1 4c-2 12 -10 44 -10 45c-9 30 -30 29 -58 25zM97 612c-1 9 0 5 6 15c31 58 76 105 106 163c7 7 15 12 28 12c32 -1 66 -45 83 -69l62 -96c3 -4 4 -15 4 -16
c0 -19 -31 -18 -62 -17h-9c-4 1 -8 1 -12 1c-16 3 -44 50 -51 63c-48 -59 -42 -68 -125 -68c-10 0 -30 -1 -30 12z" />
    <glyph glyph-name="edieresis" unicode="&#xeb;" horiz-adv-x="502" 
d="M210 -8c-125 6 -162 121 -176 217c-19 135 30 310 205 335c170 24 207 -35 227 -179l6 -40c-57 -37 -121 -29 -294 -67c-1 0 -7 -6 -8 -9c-2 -6 -6 -23 5 -109c6 -41 47 -56 86 -51c48 7 102 65 142 65c17 0 54 -41 56 -56v-5c-68 -92 -139 -107 -249 -101zM281 455
c-28 -4 -64 -16 -83 -37c-13 -12 -33 -48 -33 -69v-4l9 2c1 0 3 1 4 1c27 4 55 7 172 33c0 0 0 1 -1 4c-2 12 -10 44 -10 45c-9 30 -30 29 -58 25zM90 645c0 26 15 61 50 61s60 -20 60 -50c0 -31 -6 -45 -41 -59h-16c-36 0 -53 16 -53 48zM286 651c0 26 15 61 50 61
s60 -20 60 -50c0 -31 -6 -45 -41 -59h-16c-36 0 -53 16 -53 48z" />
    <glyph glyph-name="igrave" unicode="&#xec;" horiz-adv-x="210" 
d="M31 18c-1 8 -1 43 -1 50c0 0 18 459 37 459c4 0 6 -1 103 -3c9 0 10 -9 10 -14c0 -2 -1 -9 -1 -10c-1 -30 -9 -162 -37 -469c-1 -13 -3 -17 -15 -19c-31 2 -61 -6 -93 3c-1 0 -3 2 -3 3zM133 591c-5 0 -10 2 -13 6c-27 40 -111 101 -116 145c0 27 40 58 63 58
c20 0 27 -21 39 -36c26 -36 56 -70 84 -105c6 -6 27 -33 31 -39c1 0 1 -4 1 -5c1 -8 -74 -24 -89 -24z" />
    <glyph glyph-name="iacute" unicode="&#xed;" horiz-adv-x="210" 
d="M31 18c-1 8 -1 43 -1 50c0 0 18 459 37 459c4 0 6 -1 103 -3c9 0 10 -9 10 -14c0 -2 -1 -9 -1 -10c-1 -30 -9 -162 -37 -469c-1 -13 -3 -17 -15 -19c-31 2 -61 -6 -93 3c-1 0 -3 2 -3 3zM70 621c-15 0 -90 16 -89 24c0 1 0 5 1 5c4 6 25 33 31 39c28 35 58 69 84 105
c12 15 19 36 39 36c23 0 63 -31 63 -58c-5 -44 -89 -105 -116 -145c-3 -4 -8 -6 -13 -6z" />
    <glyph glyph-name="icircumflex" unicode="&#xee;" horiz-adv-x="210" 
d="M31 18c-1 8 -1 43 -1 50c0 0 18 459 37 459c4 0 6 -1 103 -3c9 0 10 -9 10 -14c0 -2 -1 -9 -1 -10c-1 -30 -9 -162 -37 -469c-1 -13 -3 -17 -15 -19c-31 2 -61 -6 -93 3c-1 0 -3 2 -3 3zM-31 602c-1 9 0 5 6 15c31 58 76 105 106 163c7 7 15 12 28 12
c32 -1 66 -45 83 -69l62 -96c3 -4 4 -15 4 -16c0 -19 -31 -18 -62 -17h-9c-4 1 -8 1 -12 1c-16 3 -44 50 -51 63c-48 -59 -42 -68 -125 -68c-10 0 -30 -1 -30 12z" />
    <glyph glyph-name="idieresis" unicode="&#xef;" horiz-adv-x="210" 
d="M31 18c-1 8 -1 43 -1 50c0 0 18 459 37 459c4 0 6 -1 103 -3c9 0 10 -9 10 -14c0 -2 -1 -9 -1 -10c-1 -30 -9 -162 -37 -469c-1 -13 -3 -17 -15 -19c-31 2 -61 -6 -93 3c-1 0 -3 2 -3 3zM-34 669c0 26 15 61 50 61s60 -20 60 -50c0 -31 -6 -45 -41 -59h-16
c-36 0 -53 16 -53 48zM162 675c0 26 15 61 50 61s60 -20 60 -50c0 -31 -6 -45 -41 -59h-16c-36 0 -53 16 -53 48z" />
    <glyph glyph-name="eth" unicode="&#xf0;" horiz-adv-x="516" 
d="M251 4c-136 3 -209 92 -210 258c0 103 100 186 197 187c30 0 60 -10 86 -25v6c0 28 -53 81 -71 99c-4 0 -14 6 -18 8c-16 0 -4 -58 -26 -58c-27 0 -64 2 -64 36c0 13 5 25 5 38c-20 0 -38 -14 -56 -14c-13 0 -27 13 -34 23c-4 6 -26 37 -30 44v6c0 36 77 48 102 51
c5 1 32 3 38 3c15 2 22 60 25 74c2 3 5 5 8 6c13 0 68 4 72 -20c0 -25 -14 -47 -14 -71c43 -20 82 -46 115 -81l3 -4c80 -84 107 -212 107 -325v-4c0 -116 -88 -239 -210 -239c-8 0 -17 1 -25 2zM154 191c12 -44 54 -64 97 -64c65 0 101 26 101 94v6c0 160 -200 159 -200 7
c0 -6 0 -12 1 -19c0 -3 1 -21 1 -24z" />
    <glyph glyph-name="ntilde" unicode="&#xf1;" horiz-adv-x="551" 
d="M30 16v525c0 8 9 14 17 14h90c21 0 11 -95 16 -110c101 97 175 104 213 104c86 0 130 -80 136 -159l19 -351c0 -1 -2 -3 -3 -3l-107 -4c-2 1 -6 3 -6 4l-19 261c-33 252 -240 63 -240 -116c0 -56 7 -112 7 -168v-10c-31 -3 -57 -3 -88 -3h-28l-6 7s-1 6 -1 9zM90 622
c0 38 5 50 17 71c25 41 56 59 108 59c59 0 67 -62 121 -62c26 0 17 62 36 62c12 0 22 0 76 -16c0 -71 -50 -131 -123 -131c-23 0 -48 9 -69 20c-15 9 -27 28 -46 28c-44 0 -34 -51 -59 -51c-7 0 -57 14 -61 20z" />
    <glyph glyph-name="ograve" unicode="&#xf2;" horiz-adv-x="560" 
d="M30 294c0 166 164 333 357 244c104 -65 143 -174 143 -279c0 -96 -61 -191 -165 -232c-54 -21 -124 -16 -181 3c-114 45 -154 168 -154 264zM168 297c0 -34 12 -68 26 -100c16 -39 51 -64 98 -64c83 0 109 79 109 137c0 209 -233 250 -233 27zM299 653c-5 0 -10 2 -13 6
c-27 40 -111 101 -116 145c0 27 40 58 63 58c20 0 27 -21 39 -36c26 -36 56 -70 84 -105c6 -6 27 -33 31 -39c1 0 1 -4 1 -5c1 -8 -74 -24 -89 -24z" />
    <glyph glyph-name="oacute" unicode="&#xf3;" horiz-adv-x="560" 
d="M30 294c0 166 164 333 357 244c104 -65 143 -174 143 -279c0 -96 -61 -191 -165 -232c-54 -21 -124 -16 -181 3c-114 45 -154 168 -154 264zM168 297c0 -34 12 -68 26 -100c16 -39 51 -64 98 -64c83 0 109 79 109 137c0 209 -233 250 -233 27zM260 653
c-15 0 -90 16 -89 24c0 1 0 5 1 5c4 6 25 33 31 39c28 35 58 69 84 105c12 15 19 36 39 36c23 0 63 -31 63 -58c-5 -44 -89 -105 -116 -145c-3 -4 -8 -6 -13 -6z" />
    <glyph glyph-name="ocircumflex" unicode="&#xf4;" horiz-adv-x="560" 
d="M30 294c0 166 164 333 357 244c104 -65 143 -174 143 -279c0 -96 -61 -191 -165 -232c-54 -21 -124 -16 -181 3c-114 45 -154 168 -154 264zM168 297c0 -34 12 -68 26 -100c16 -39 51 -64 98 -64c83 0 109 79 109 137c0 209 -233 250 -233 27zM136 674c-1 9 0 5 6 15
c31 58 76 105 106 163c7 7 15 12 28 12c32 -1 66 -45 83 -69l62 -96c3 -4 4 -15 4 -16c0 -19 -31 -18 -62 -17h-9c-4 1 -8 1 -12 1c-16 3 -44 50 -51 63c-48 -59 -42 -68 -125 -68c-10 0 -30 -1 -30 12z" />
    <glyph glyph-name="otilde" unicode="&#xf5;" horiz-adv-x="560" 
d="M30 294c0 166 164 333 357 244c104 -65 143 -174 143 -279c0 -96 -61 -191 -165 -232c-54 -21 -124 -16 -181 3c-114 45 -154 168 -154 264zM168 297c0 -34 12 -68 26 -100c16 -39 51 -64 98 -64c83 0 109 79 109 137c0 209 -233 250 -233 27zM101 670c0 38 5 50 17 71
c25 41 56 59 108 59c59 0 67 -62 121 -62c26 0 17 62 36 62c12 0 22 0 76 -16c0 -71 -50 -131 -123 -131c-23 0 -48 9 -69 20c-15 9 -27 28 -46 28c-44 0 -34 -51 -59 -51c-7 0 -57 14 -61 20z" />
    <glyph glyph-name="odieresis" unicode="&#xf6;" horiz-adv-x="560" 
d="M30 294c0 166 164 333 357 244c104 -65 143 -174 143 -279c0 -96 -61 -191 -165 -232c-54 -21 -124 -16 -181 3c-114 45 -154 168 -154 264zM168 297c0 -34 12 -68 26 -100c16 -39 51 -64 98 -64c83 0 109 79 109 137c0 209 -233 250 -233 27zM127 707c0 26 15 61 50 61
s60 -20 60 -50c0 -31 -6 -45 -41 -59h-16c-36 0 -53 16 -53 48zM323 713c0 26 15 61 50 61s60 -20 60 -50c0 -31 -6 -45 -41 -59h-16c-36 0 -53 16 -53 48z" />
    <glyph glyph-name="oslash" unicode="&#xf8;" horiz-adv-x="560" 
d="M30 294c0 166 164 333 357 244c2 -2 5 -3 8 -5l29 42c4 1 7 1 9 1c20 -8 29 -13 45 -22c5 -2 12 -5 14 -9l-43 -60c58 -63 81 -146 81 -226c0 -96 -61 -191 -165 -232c-54 -21 -124 -16 -181 3c-16 6 -31 14 -44 23l-27 -39l-4 -5c-4 0 -24 8 -55 30l40 57
c-46 57 -64 133 -64 198zM401 270c0 44 -11 81 -27 109l-156 -218c18 -18 43 -28 74 -28c83 0 109 79 109 137zM168 297c0 -25 6 -49 14 -72l142 206c-68 40 -156 3 -156 -134z" />
    <glyph glyph-name="ugrave" unicode="&#xf9;" horiz-adv-x="531" 
d="M30 284c3 81 20 200 20 245l3 4h120c6 0 4 -9 4 -10c0 -77 -11 -152 -11 -228s23 -117 107 -117h4c83 0 100 46 100 131c0 57 -6 114 -6 172c0 22 82 36 99 36h11c15 -18 20 -144 20 -167v-36c0 -96 -6 -163 -84 -229c-76 -43 -173 -39 -260 -16
c-117 32 -127 102 -127 215zM309 577c-5 0 -10 2 -13 6c-27 40 -111 101 -116 145c0 27 40 58 63 58c20 0 27 -21 39 -36c26 -36 56 -70 84 -105c6 -6 27 -33 31 -39c1 0 1 -4 1 -5c1 -8 -74 -24 -89 -24z" />
    <glyph glyph-name="uacute" unicode="&#xfa;" horiz-adv-x="531" 
d="M30 284c3 81 20 200 20 245l3 4h120c6 0 4 -9 4 -10c0 -77 -11 -152 -11 -228s23 -117 107 -117h4c83 0 100 46 100 131c0 57 -6 114 -6 172c0 22 82 36 99 36h11c15 -18 20 -144 20 -167v-36c0 -96 -6 -163 -84 -229c-76 -43 -173 -39 -260 -16
c-117 32 -127 102 -127 215zM220 601c-15 0 -90 16 -89 24c0 1 0 5 1 5c4 6 25 33 31 39c28 35 58 69 84 105c12 15 19 36 39 36c23 0 63 -31 63 -58c-5 -44 -89 -105 -116 -145c-3 -4 -8 -6 -13 -6z" />
    <glyph glyph-name="ucircumflex" unicode="&#xfb;" horiz-adv-x="531" 
d="M30 284c3 81 20 200 20 245l3 4h120c6 0 4 -9 4 -10c0 -77 -11 -152 -11 -228s23 -117 107 -117h4c83 0 100 46 100 131c0 57 -6 114 -6 172c0 22 82 36 99 36h11c15 -18 20 -144 20 -167v-36c0 -96 -6 -163 -84 -229c-76 -43 -173 -39 -260 -16
c-117 32 -127 102 -127 215zM121 596c-1 9 0 5 6 15c31 58 76 105 106 163c7 7 15 12 28 12c32 -1 66 -45 83 -69l62 -96c3 -4 4 -15 4 -16c0 -19 -31 -18 -62 -17h-9c-4 1 -8 1 -12 1c-16 3 -44 50 -51 63c-48 -59 -42 -68 -125 -68c-10 0 -30 -1 -30 12z" />
    <glyph glyph-name="udieresis" unicode="&#xfc;" horiz-adv-x="531" 
d="M30 284c3 81 20 200 20 245l3 4h120c6 0 4 -9 4 -10c0 -77 -11 -152 -11 -228s23 -117 107 -117h4c83 0 100 46 100 131c0 57 -6 114 -6 172c0 22 82 36 99 36h11c15 -18 20 -144 20 -167v-36c0 -96 -6 -163 -84 -229c-76 -43 -173 -39 -260 -16
c-117 32 -127 102 -127 215zM118 641c0 26 15 61 50 61s60 -20 60 -50c0 -31 -6 -45 -41 -59h-16c-36 0 -53 16 -53 48zM314 647c0 26 15 61 50 61s60 -20 60 -50c0 -31 -6 -45 -41 -59h-16c-36 0 -53 16 -53 48z" />
    <glyph glyph-name="yacute" unicode="&#xfd;" horiz-adv-x="553" 
d="M77 -87c-10 5 -7 26 -7 32v7c0 26 -2 79 31 79c45 0 88 -3 185 -3c53 0 81 34 87 80c4 26 11 89 7 99c-38 -43 -117 -56 -173 -56c-64 0 -177 26 -177 105v8c0 80 16 159 33 236c2 9 9 30 10 31l7 7h31c32 0 52 0 85 -4c0 -4 2 -10 2 -18c0 -62 -9 -159 -20 -216
c-1 -4 -1 -7 -1 -11c0 -83 200 -51 200 50v7c15 121 18 138 19 154c19 13 93 10 117 10c7 -5 10 -6 10 -13c-6 -41 -16 -202 -20 -259l-2 -28c-6 -111 -14 -253 -148 -288c-59 -7 -118 -15 -177 -15c-33 0 -67 1 -99 6zM251 579c-15 0 -90 16 -89 24c0 1 0 5 1 5
c4 6 25 33 31 39c28 35 58 69 84 105c12 15 19 36 39 36c23 0 63 -31 63 -58c-5 -44 -89 -105 -116 -145c-3 -4 -8 -6 -13 -6z" />
    <glyph glyph-name="thorn" unicode="&#xfe;" horiz-adv-x="365" 
d="M30 11c29 722 36 749 37 776c1 2 5 8 8 8c21 0 96 -13 118 -21l4 -3c1 -2 5 -12 5 -15c-9 -77 -25 -156 -25 -235v-22c3 -6 77 -7 99 -21c47 -31 59 -70 59 -128c0 -36 -8 -60 -29 -91c-25 -37 -105 -44 -144 -47c-6 -1 -16 2 -21 -3v-23c0 -59 8 -118 8 -175h-119z
M169 403c-5 -24 -4 -62 -4 -83h5c36 0 63 1 63 45c0 26 -9 47 -37 47c-9 0 -24 -1 -27 -9z" />
    <glyph glyph-name="ydieresis" unicode="&#xff;" horiz-adv-x="553" 
d="M77 -87c-10 5 -7 26 -7 32v7c0 26 -2 79 31 79c45 0 88 -3 185 -3c53 0 81 34 87 80c4 26 11 89 7 99c-38 -43 -117 -56 -173 -56c-64 0 -177 26 -177 105v8c0 80 16 159 33 236c2 9 9 30 10 31l7 7h31c32 0 52 0 85 -4c0 -4 2 -10 2 -18c0 -62 -9 -159 -20 -216
c-1 -4 -1 -7 -1 -11c0 -83 200 -51 200 50v7c15 121 18 138 19 154c19 13 93 10 117 10c7 -5 10 -6 10 -13c-6 -41 -16 -202 -20 -259l-2 -28c-6 -111 -14 -253 -148 -288c-59 -7 -118 -15 -177 -15c-33 0 -67 1 -99 6zM331 655c0 26 15 61 50 61s60 -20 60 -50
c0 -31 -6 -45 -41 -59h-16c-36 0 -53 16 -53 48zM135 649c0 26 15 61 50 61s60 -20 60 -50c0 -31 -6 -45 -41 -59h-16c-36 0 -53 16 -53 48z" />
    <glyph glyph-name="dotlessi" unicode="&#x131;" horiz-adv-x="210" 
d="M31 18c-1 8 -1 43 -1 50c0 0 18 459 37 459c4 0 6 -1 103 -3c9 0 10 -9 10 -14c0 -2 -1 -9 -1 -10c-1 -30 -9 -162 -37 -469c-1 -13 -3 -17 -15 -19c-31 2 -61 -6 -93 3c-1 0 -3 2 -3 3z" />
    <glyph glyph-name="OE" unicode="&#x152;" horiz-adv-x="660" 
d="M344 7c-28 -17 -60 -28 -98 -28c-94 0 -185 92 -201 190c-16 100 -19 203 -6 309c13 110 42 210 129 285c30 25 65 31 107 31l235 18c5 0 30 3 33 -6c2 -31 10 -60 10 -90v-14c-7 -12 -135 -13 -159 -20v-9c0 -9 3 -247 27 -247l140 20c1 0 4 1 5 1l22 -106l-168 -21v-13
c0 -51 4 -106 9 -155c0 -10 2 -24 14 -24c17 0 132 20 161 21c10 0 12 -10 13 -18c4 -20 12 -62 12 -86c0 -2 2 -10 -3 -11c-52 -1 -98 -13 -253 -23c-1 -1 -23 -3 -24 -3s-4 -1 -5 -1zM152 324c0 -97 1 -183 61 -214c49 -26 87 12 104 52l-37 538h-5
c-57 0 -123 -141 -123 -340v-36z" />
    <glyph glyph-name="oe" unicode="&#x153;" horiz-adv-x="776" 
d="M484 30c-29 1 -53 8 -73 20c-14 -9 -30 -17 -46 -23c-54 -21 -124 -16 -181 3c-114 45 -154 168 -154 264c0 159 105 328 366 237c30 26 69 44 117 51c170 24 207 -35 227 -179l6 -40l-294 -67c-1 0 -7 -6 -8 -9c-2 -6 -6 -23 5 -109c6 -41 47 -56 86 -51
c48 7 102 65 142 65c17 0 54 -41 56 -56v-5c-68 -92 -139 -107 -249 -101zM292 133c16 0 31 3 43 8c-14 34 -22 71 -27 106c-8 58 -4 124 18 182c-68 43 -158 6 -158 -132c0 -34 12 -68 26 -100c16 -39 51 -64 98 -64zM555 493c-28 -4 -64 -16 -83 -37
c-13 -12 -33 -48 -33 -69v-4l9 2c1 0 3 1 4 1c27 4 55 7 172 33c0 0 0 1 -1 4c-2 12 -10 44 -10 45c-9 30 -30 29 -58 25z" />
    <glyph glyph-name="Ydieresis" unicode="&#x178;" horiz-adv-x="601" 
d="M250 -20c-2 40 -11 306 -15 349c0 17 -4 60 -5 61l-7 8c-12 -2 -23 -2 -34 -2c-121 0 -159 96 -159 207v25c0 21 2 129 15 156c39 -2 79 4 118 4h8c2 0 6 -3 6 -4l3 -23v-144c0 -2 -1 -18 -1 -20v-13c1 -42 2 -55 54 -61l192 19c15 10 16 22 21 38c-1 48 -5 115 -4 167
l124 -3c1 -36 5 -78 5 -116v-11c-2 -61 -9 -125 -46 -175c-33 -44 -137 -42 -146 -68l1 -395l-3 -1l-114 -6c-6 1 -10 0 -13 8zM147 918c0 26 15 61 50 61s60 -20 60 -50c0 -31 -6 -45 -41 -59h-16c-36 0 -53 16 -53 48zM343 924c0 26 15 61 50 61s60 -20 60 -50
c0 -31 -6 -45 -41 -59h-16c-36 0 -53 16 -53 48z" />
    <glyph glyph-name="florin" unicode="&#x192;" horiz-adv-x="366" 
d="M100 -22l-17 385l-47 -2c-2 0 -6 2 -6 2v129s4 3 6 3c3 1 49 3 53 3c-44 339 71 342 202 342c12 0 45 1 45 -15c0 -28 -5 -66 -5 -90l-7 -7c-83 13 -137 -22 -137 -106c0 -36 -5 -81 7 -116c23 0 47 1 69 1c3 0 9 1 9 -3c9 -38 15 -63 15 -101c0 -10 -4 -20 -18 -21
l-69 -6l28 -362c2 -10 3 -15 3 -23c0 -27 -77 -19 -98 -19h-24c-4 1 -7 3 -9 6z" />
    <glyph glyph-name="quoteleft" unicode="&#x2018;" horiz-adv-x="170" 
d="M129 751l11 -184c0 -41 -30 -69 -73 -69c-27 0 -37 33 -37 53c0 27 2 55 38 181c3 8 8 39 23 39h26c5 0 11 -18 12 -20z" />
    <glyph glyph-name="quoteright" unicode="&#x2019;" horiz-adv-x="170" 
d="M41 518l-11 184c0 41 30 69 73 69c27 0 37 -33 37 -53c0 -27 -2 -55 -38 -181c-3 -8 -8 -39 -23 -39h-26c-5 0 -11 18 -12 20z" />
    <glyph glyph-name="quotesinglbase" unicode="&#x201a;" horiz-adv-x="170" 
d="M41 -42l-11 184c0 41 30 69 73 69c27 0 37 -33 37 -53c0 -27 -2 -55 -38 -181c-3 -8 -8 -39 -23 -39h-26c-5 0 -11 18 -12 20z" />
    <glyph glyph-name="quotedblleft" unicode="&#x201c;" horiz-adv-x="320" 
d="M279 747l11 -184c0 -41 -30 -69 -73 -69c-27 0 -37 33 -37 53c0 27 2 55 38 181c3 8 8 39 23 39h26c5 0 11 -18 12 -20zM129 751l11 -184c0 -41 -30 -69 -73 -69c-27 0 -37 33 -37 53c0 27 2 55 38 181c3 8 8 39 23 39h26c5 0 11 -18 12 -20z" />
    <glyph glyph-name="quotedblright" unicode="&#x201d;" horiz-adv-x="320" 
d="M41 518l-11 184c0 41 30 69 73 69c27 0 37 -33 37 -53c0 -27 -2 -55 -38 -181c-3 -8 -8 -39 -23 -39h-26c-5 0 -11 18 -12 20zM191 514l-11 184c0 41 30 69 73 69c27 0 37 -33 37 -53c0 -27 -2 -55 -38 -181c-3 -8 -8 -39 -23 -39h-26c-5 0 -11 18 -12 20z" />
    <glyph glyph-name="quotedblbase" unicode="&#x201e;" horiz-adv-x="320" 
d="M41 -30l-11 184c0 41 30 69 73 69c27 0 37 -33 37 -53c0 -27 -2 -55 -38 -181c-3 -8 -8 -39 -23 -39h-26c-5 0 -11 18 -12 20zM191 -34l-11 184c0 41 30 69 73 69c27 0 37 -33 37 -53c0 -27 -2 -55 -38 -181c-3 -8 -8 -39 -23 -39h-26c-5 0 -11 18 -12 20z" />
    <glyph glyph-name="ellipsis" unicode="&#x2026;" horiz-adv-x="513" 
d="M30 39c0 26 15 61 50 61s60 -20 60 -50c0 -31 -6 -45 -41 -59h-16c-36 0 -53 16 -53 48zM201 39c0 26 15 61 50 61s60 -20 60 -50c0 -31 -6 -45 -41 -59h-16c-36 0 -53 16 -53 48zM372 39c0 26 15 61 50 61s60 -20 60 -50c0 -31 -6 -45 -41 -59h-16c-36 0 -53 16 -53 48z
" />
    <glyph glyph-name="guilsinglleft" unicode="&#x2039;" horiz-adv-x="372" 
d="M185 165l-140 112c-7 6 -14 11 -14 19c0 4 -1 5 2 8c73 58 146 114 224 169c13 5 24 15 39 15c17 0 46 -39 46 -53c-185 -145 -185 -145 -185 -146c9 -14 25 -21 38 -34l101 -75c0 -19 -32 -53 -53 -53s-42 26 -58 38z" />
    <glyph glyph-name="guilsinglright" unicode="&#x203a;" horiz-adv-x="372" 
d="M327 277l-140 -112c-16 -12 -37 -38 -58 -38s-53 34 -53 53l101 75c13 13 29 20 38 34c0 1 0 1 -185 146c0 14 29 53 46 53c15 0 26 -10 39 -15c78 -55 151 -111 224 -169c3 -3 2 -4 2 -8c0 -8 -7 -13 -14 -19z" />
    <glyph glyph-name="Euro" unicode="&#x20ac;" horiz-adv-x="599" 
d="M35 269l-2 6c0 1 -1 11 -1 13c0 26 3 47 9 75c5 20 42 -3 46 8c1 19 8 55 8 73c0 8 -50 12 -60 12l-5 5v95c0 5 5 8 9 8c21 0 42 -5 79 -5c53 121 118 222 266 222c22 0 141 -12 144 -50l-18 -105c-58 14 -102 26 -138 26c-60 0 -117 -48 -136 -106c0 -1 2 -2 3 -3
c1 0 10 -2 13 -2c10 -2 88 -12 98 -13c11 -2 18 -8 18 -21v-56l-3 -8s-6 -1 -9 -1c-46 0 -93 14 -140 14c-15 0 -15 -33 -16 -42v-48l3 -3c26 -2 99 -2 121 -13c1 0 2 -2 3 -3v-9c0 -22 -3 -45 -6 -68c-1 -10 -4 -16 -15 -16c-31 0 -61 11 -92 11c-3 0 -9 0 -9 -5
c0 -14 13 -38 19 -49c28 -57 73 -101 139 -101c21 0 64 11 121 57c3 2 4 3 8 3c17 0 76 -67 77 -88c-43 -54 -112 -78 -180 -78c-98 0 -184 31 -238 117c-27 43 -44 89 -56 139c0 0 -2 4 -3 5s-3 4 -3 4h-54z" />
    </font>
</defs>
</svg>
