<?xml version="1.0" encoding="utf-8"?>
<!-- Generator: Adobe Illustrator 16.0.0, SVG Export Plug-In . SVG Version: 6.00 Build 0)  -->
<!DOCTYPE svg PUBLIC "-//W3C//DTD SVG 1.1//EN" "http://www.w3.org/Graphics/SVG/1.1/DTD/svg11.dtd">
<svg version="1.1" id="Layer_1" xmlns="http://www.w3.org/2000/svg" xmlns:xlink="http://www.w3.org/1999/xlink" x="0px" y="0px"
	 width="600px" height="600px" viewBox="0 0 600 600" enable-background="new 0 0 600 600" xml:space="preserve">
<g>
	<path fill="#CF962A" d="M25.37,165.806h43.438V212.1h24.269v-46.293h43.643v136.025H93.076v-50.372H68.808v50.372H25.37V165.806z
		 M51.065,285.516v-51.595h59.957v51.595h5.303V182.121h-5.303v46.905H51.065v-46.905h-5.302v103.395H51.065z"/>
	<path fill="#CF962A" d="M153.543,261.656c-3.741-8.699-5.608-17.946-5.608-27.735c0-9.789,1.867-19.033,5.608-27.735
		c3.737-8.699,8.836-16.28,15.295-22.739c6.456-6.456,14.036-11.554,22.738-15.295c8.699-3.737,17.946-5.608,27.735-5.608
		s19.033,1.871,27.735,5.608c8.699,3.741,16.279,8.839,22.738,15.295c6.456,6.459,11.555,14.04,15.296,22.739
		c3.737,8.702,5.608,17.946,5.608,27.735c0,9.789-1.871,19.036-5.608,27.735c-3.741,8.702-8.84,16.283-15.296,22.739
		c-6.459,6.459-14.039,11.558-22.738,15.295c-8.702,3.738-17.946,5.608-27.735,5.608s-19.036-1.87-27.735-5.608
		c-8.702-3.738-16.282-8.836-22.738-15.295C162.379,277.939,157.28,270.358,153.543,261.656z M171.183,213.629
		c-2.721,6.322-4.078,13.087-4.078,20.292c0,7.208,1.357,13.969,4.078,20.292c2.719,6.322,6.456,11.863,11.217,16.621
		c4.758,4.761,10.299,8.498,16.621,11.216c6.321,2.721,13.083,4.079,20.291,4.079c7.205,0,13.97-1.357,20.292-4.079
		c6.321-2.718,11.859-6.456,16.62-11.216c4.758-4.757,8.495-10.299,11.217-16.621c2.718-6.322,4.079-13.084,4.079-20.292
		c0-7.205-1.361-13.97-4.079-20.292c-2.722-6.322-6.459-11.86-11.217-16.621c-4.761-4.757-10.299-8.495-16.62-11.216
		c-6.322-2.718-13.087-4.079-20.292-4.079c-7.208,0-13.97,1.36-20.291,4.079c-6.322,2.721-11.863,6.459-16.621,11.216
		C177.639,201.769,173.901,207.307,171.183,213.629z M237.563,277.155c-5.643,2.447-11.726,3.671-18.252,3.671
		c-6.525,0-12.612-1.224-18.252-3.671c-5.644-2.447-10.604-5.812-14.888-10.095c-4.282-4.283-7.647-9.244-10.095-14.887
		c-2.447-5.64-3.671-11.726-3.671-18.252c0-6.526,1.224-12.609,3.671-18.252c2.447-5.64,5.813-10.604,10.095-14.887
		c4.283-4.283,9.244-7.647,14.888-10.095c5.64-2.447,11.727-3.671,18.252-3.671c6.526,0,12.609,1.224,18.252,3.671
		c5.641,2.447,10.605,5.812,14.888,10.095s7.647,9.247,10.095,14.887c2.447,5.643,3.671,11.726,3.671,18.252
		c0,6.526-1.224,12.612-3.671,18.252c-2.447,5.643-5.813,10.604-10.095,14.887S243.204,274.708,237.563,277.155z M193.004,222.806
		c-1.497,3.467-2.243,7.173-2.243,11.115c0,3.945,0.746,7.647,2.243,11.114c1.494,3.467,3.534,6.494,6.118,9.075
		c2.581,2.584,5.608,4.624,9.075,6.118c3.467,1.498,7.17,2.243,11.114,2.243c3.941,0,7.647-0.746,11.114-2.243
		c3.467-1.495,6.491-3.534,9.075-6.118c2.581-2.581,4.621-5.608,6.118-9.075c1.495-3.467,2.243-7.169,2.243-11.114
		c0-3.942-0.748-7.648-2.243-11.115c-1.497-3.467-3.537-6.491-6.118-9.075c-2.584-2.581-5.608-4.62-9.075-6.118
		c-3.467-1.494-7.173-2.243-11.114-2.243c-3.944,0-7.647,0.749-11.114,2.243c-3.467,1.498-6.494,3.537-9.075,6.118
		C196.538,216.315,194.498,219.339,193.004,222.806z"/>
	<path fill="#CF962A" d="M304.452,261.656c-3.74-8.699-5.607-17.946-5.607-27.735c0-9.789,1.867-19.033,5.607-27.735
		c3.738-8.699,8.837-16.28,15.296-22.739c6.455-6.456,14.036-11.554,22.738-15.295c8.699-3.737,17.946-5.608,27.735-5.608
		s19.033,1.871,27.735,5.608c8.699,3.741,16.279,8.839,22.738,15.295c6.456,6.459,11.555,14.04,15.295,22.739
		c3.738,8.702,5.608,17.946,5.608,27.735c0,9.789-1.87,19.036-5.608,27.735c-3.74,8.702-8.839,16.283-15.295,22.739
		c-6.459,6.459-14.039,11.558-22.738,15.295c-8.702,3.738-17.946,5.608-27.735,5.608s-19.036-1.87-27.735-5.608
		c-8.702-3.738-16.283-8.836-22.738-15.295C313.289,277.939,308.19,270.358,304.452,261.656z M322.093,213.629
		c-2.721,6.322-4.078,13.087-4.078,20.292c0,7.208,1.357,13.969,4.078,20.292c2.718,6.322,6.456,11.863,11.217,16.621
		c4.757,4.761,10.299,8.498,16.62,11.216c6.322,2.721,13.084,4.079,20.292,4.079c7.204,0,13.97-1.357,20.291-4.079
		c6.322-2.718,11.86-6.456,16.621-11.216c4.758-4.757,8.495-10.299,11.217-16.621c2.718-6.322,4.078-13.084,4.078-20.292
		c0-7.205-1.36-13.97-4.078-20.292c-2.722-6.322-6.459-11.86-11.217-16.621c-4.761-4.757-10.299-8.495-16.621-11.216
		c-6.321-2.718-13.087-4.079-20.291-4.079c-7.208,0-13.97,1.36-20.292,4.079c-6.321,2.721-11.863,6.459-16.62,11.216
		C328.549,201.769,324.811,207.307,322.093,213.629z M388.474,277.155c-5.644,2.447-11.727,3.671-18.252,3.671
		c-6.526,0-12.612-1.224-18.252-3.671c-5.644-2.447-10.604-5.812-14.888-10.095c-4.282-4.283-7.647-9.244-10.095-14.887
		c-2.447-5.64-3.671-11.726-3.671-18.252c0-6.526,1.224-12.609,3.671-18.252c2.447-5.64,5.813-10.604,10.095-14.887
		c4.283-4.283,9.244-7.647,14.888-10.095c5.64-2.447,11.726-3.671,18.252-3.671c6.525,0,12.608,1.224,18.252,3.671
		c5.641,2.447,10.604,5.812,14.888,10.095c4.282,4.283,7.647,9.247,10.095,14.887c2.447,5.643,3.671,11.726,3.671,18.252
		c0,6.526-1.224,12.612-3.671,18.252c-2.447,5.643-5.813,10.604-10.095,14.887C399.078,271.343,394.114,274.708,388.474,277.155z
		 M343.914,222.806c-1.498,3.467-2.243,7.173-2.243,11.115c0,3.945,0.745,7.647,2.243,11.114c1.494,3.467,3.534,6.494,6.118,9.075
		c2.581,2.584,5.608,4.624,9.075,6.118c3.467,1.498,7.169,2.243,11.114,2.243c3.941,0,7.647-0.746,11.114-2.243
		c3.467-1.495,6.491-3.534,9.075-6.118c2.581-2.581,4.62-5.608,6.118-9.075c1.494-3.467,2.243-7.169,2.243-11.114
		c0-3.942-0.749-7.648-2.243-11.115c-1.498-3.467-3.537-6.491-6.118-9.075c-2.584-2.581-5.608-4.62-9.075-6.118
		c-3.467-1.494-7.173-2.243-11.114-2.243c-3.945,0-7.647,0.749-11.114,2.243c-3.467,1.498-6.494,3.537-9.075,6.118
		C347.448,216.315,345.408,219.339,343.914,222.806z"/>
	<path fill="#CF962A" d="M452.813,165.806h44.05v31.406l25.696-31.406h53.227l-47.925,62.2l50.372,73.825h-52.411l-28.959-42.011
		v42.011h-44.05V165.806z M478.51,285.516v-27.531l21.209-26.308l37.116,53.839h6.322l-39.768-58.122l36.504-45.273h-6.525
		l-54.858,67.707v-67.707h-5.303v103.395H478.51z"/>
</g>
<g>
	<path fill="#CF962A" d="M21.767,375.62c0-9.539,1.647-18.077,4.946-25.615c3.296-7.536,7.772-14.014,13.426-19.433
		c5.653-5.415,12.247-9.539,19.786-12.366c7.535-2.826,15.546-4.298,24.025-4.416c6.829,0,12.835,0.648,18.019,1.943
		c5.182,1.297,9.655,2.769,13.426,4.416c4.356,1.886,8.127,3.947,11.307,6.184l-18.549,32.682c-1.886-1.413-3.947-2.766-6.184-4.063
		c-1.885-0.941-4.239-1.883-7.066-2.826c-2.826-0.941-6.006-1.353-9.539-1.237c-3.652,0-7.009,0.649-10.069,1.943
		c-2.945,1.298-5.596,3.064-7.95,5.3c-2.357,2.12-4.182,4.712-5.477,7.773c-1.297,3.063-1.942,6.302-1.942,9.716
		c0,3.417,0.706,6.655,2.119,9.716c1.414,3.064,3.238,5.653,5.477,7.773c2.354,2.238,5.123,4.005,8.303,5.3
		c3.181,1.297,6.652,1.943,10.423,1.943c3.769,0,7.125-0.47,10.07-1.413c2.942-0.941,5.415-2.002,7.419-3.181
		c2.354-1.294,4.417-2.826,6.184-4.593l18.549,32.682c-3.18,2.592-6.95,4.889-11.307,6.89c-3.771,1.65-8.303,3.18-13.603,4.593
		c-5.3,1.414-11.366,2.12-18.195,2.12c-9.187,0.116-17.666-1.355-25.438-4.416c-7.773-3.062-14.486-7.301-20.14-12.72
		c-5.652-5.415-10.069-11.894-13.249-19.433C23.356,393.347,21.767,384.925,21.767,375.62z M44.025,375.62
		c0-5.653,0.941-10.953,2.826-15.899c1.883-4.946,4.651-9.244,8.303-12.896c3.533-3.649,7.831-6.536,12.896-8.656
		c5.063-2.12,10.715-3.18,16.959-3.18c3.062-0.116,5.77,0.061,8.126,0.529c2.354,0.473,4.417,1.002,6.184,1.59
		c2.001,0.591,3.71,1.298,5.123,2.12l2.473-4.239c-1.885-0.823-3.886-1.59-6.006-2.297c-2.004-0.588-4.301-1.118-6.89-1.59
		c-2.592-0.47-5.596-0.707-9.01-0.707c-6.125,0-11.896,1.061-17.313,3.18c-5.418,2.004-10.246,5.008-14.486,9.01
		c-4.239,4.005-7.538,8.833-9.893,14.486c-2.592,5.653-3.887,11.836-3.887,18.549c0,6.95,1.177,13.191,3.533,18.726
		c2.354,5.537,5.712,10.307,10.07,14.31c4.239,4.005,9.186,7.008,14.839,9.01c5.653,2.119,11.659,3.18,18.02,3.18
		c3.533,0,6.713-0.293,9.539-0.884c2.826-0.588,5.239-1.236,7.243-1.942c2.235-0.823,4.239-1.767,6.006-2.827l-2.473-4.239
		c-1.532,1.06-3.299,1.942-5.3,2.649c-1.767,0.707-3.887,1.298-6.359,1.767c-2.474,0.472-5.361,0.768-8.656,0.884
		c-6.479,0-12.309-1.061-17.489-3.181c-5.185-2.119-9.54-5.004-13.073-8.656c-3.533-3.648-6.359-7.949-8.479-12.896
		C44.967,386.573,44.025,381.273,44.025,375.62z"/>
	<path fill="#CF962A" d="M135.092,399.646c-3.24-7.535-4.857-15.546-4.857-24.025s1.617-16.487,4.857-24.025
		c3.238-7.535,7.654-14.103,13.25-19.697c5.592-5.593,12.159-10.009,19.697-13.249c7.535-3.238,15.546-4.858,24.025-4.858
		s16.487,1.62,24.025,4.858c7.535,3.24,14.103,7.656,19.697,13.249c5.593,5.595,10.009,12.162,13.249,19.697
		c3.238,7.538,4.858,15.546,4.858,24.025s-1.62,16.49-4.858,24.025c-3.24,7.538-7.656,14.105-13.249,19.697
		c-5.595,5.596-12.162,10.012-19.697,13.25c-7.538,3.237-15.546,4.857-24.025,4.857s-16.49-1.62-24.025-4.857
		c-7.538-3.238-14.105-7.654-19.697-13.25C142.746,413.751,138.33,407.184,135.092,399.646z M150.373,358.043
		c-2.357,5.477-3.533,11.336-3.533,17.577c0,6.244,1.176,12.102,3.533,17.577c2.354,5.477,5.593,10.277,9.716,14.398
		c4.121,4.123,8.922,7.361,14.398,9.716c5.476,2.357,11.333,3.533,17.577,3.533c6.241,0,12.101-1.176,17.577-3.533
		c5.477-2.354,10.274-5.593,14.397-9.716c4.121-4.121,7.359-8.922,9.717-14.398c2.354-5.476,3.533-11.333,3.533-17.577
		c0-6.241-1.179-12.101-3.533-17.577c-2.357-5.477-5.596-10.274-9.717-14.397c-4.123-4.121-8.921-7.359-14.397-9.717
		c-5.477-2.354-11.336-3.533-17.577-3.533c-6.244,0-12.102,1.179-17.577,3.533c-5.477,2.357-10.277,5.596-14.398,9.717
		C155.966,347.769,152.728,352.566,150.373,358.043z M207.875,413.071c-4.889,2.12-10.157,3.181-15.811,3.181
		s-10.925-1.061-15.811-3.181c-4.889-2.119-9.187-5.034-12.896-8.744s-6.625-8.008-8.744-12.896
		c-2.12-4.886-3.181-10.157-3.181-15.811s1.061-10.922,3.181-15.811c2.119-4.886,5.034-9.187,8.744-12.896s8.008-6.624,12.896-8.744
		c4.886-2.12,10.157-3.18,15.811-3.18s10.922,1.06,15.811,3.18c4.886,2.12,9.187,5.034,12.896,8.744s6.624,8.011,8.744,12.896
		c2.12,4.889,3.18,10.157,3.18,15.811s-1.06,10.925-3.18,15.811c-2.12,4.889-5.034,9.187-8.744,12.896
		S212.761,410.952,207.875,413.071z M169.275,365.992c-1.297,3.003-1.943,6.214-1.943,9.628c0,3.417,0.646,6.625,1.943,9.628
		c1.295,3.003,3.062,5.625,5.3,7.861c2.236,2.238,4.858,4.005,7.861,5.3c3.003,1.297,6.211,1.943,9.628,1.943
		c3.414,0,6.625-0.646,9.628-1.943c3.003-1.295,5.622-3.062,7.861-5.3c2.235-2.236,4.002-4.858,5.3-7.861
		c1.294-3.003,1.943-6.211,1.943-9.628c0-3.414-0.649-6.625-1.943-9.628c-1.298-3.003-3.064-5.622-5.3-7.861
		c-2.239-2.235-4.858-4.002-7.861-5.3c-3.003-1.294-6.214-1.943-9.628-1.943c-3.417,0-6.625,0.649-9.628,1.943
		c-3.003,1.298-5.625,3.064-7.861,5.3C172.337,360.37,170.57,362.989,169.275,365.992z"/>
	<path fill="#CF962A" d="M263.609,316.616h69.426v30.915h-31.798v13.073h31.269v29.325h-31.269v44.518h-37.628V316.616z
		 M285.868,420.314v-42.928h33.564v-4.24h-33.564v-38.157h35.331v-4.24h-39.925v89.565H285.868z"/>
	<path fill="#CF962A" d="M342.751,316.616h69.427v30.915H380.38v13.073h31.269v29.325H380.38v44.518h-37.629V316.616z
		 M365.011,420.314v-42.928h33.564v-4.24h-33.564v-38.157h35.331v-4.24h-39.925v89.565H365.011z"/>
	<path fill="#CF962A" d="M421.894,316.616h69.427v30.915h-31.798v13.073h31.269v29.325h-31.269v13.603h33.035v30.915h-70.664
		V316.616z M479.484,420.314v-4.239h-35.331v-38.688h33.564v-4.24h-33.564v-38.157h35.331v-4.24H439.56v89.565H479.484z"/>
	<path fill="#CF962A" d="M503.154,316.616h69.427v30.915h-31.798v13.073h31.269v29.325h-31.269v13.603h33.034v30.915h-70.663
		V316.616z M560.745,420.314v-4.239h-35.331v-38.688h33.564v-4.24h-33.564v-38.157h35.331v-4.24H520.82v89.565H560.745z"/>
</g>
</svg>
