<?xml version="1.0" encoding="utf-8"?>
<!-- Generator: Adobe Illustrator 18.1.1, SVG Export Plug-In . SVG Version: 6.00 Build 0)  -->
<!DOCTYPE svg PUBLIC "-//W3C//DTD SVG 1.1//EN" "http://www.w3.org/Graphics/SVG/1.1/DTD/svg11.dtd">
<svg version="1.1" id="Layer_1" xmlns="http://www.w3.org/2000/svg" xmlns:xlink="http://www.w3.org/1999/xlink" x="0px" y="0px"
	 width="980px" height="1000px" viewBox="158 251 980 1000" enable-background="new 158 251 980 1000" xml:space="preserve">
<rect x="161.1" y="401.9" fill="#0C2B57" width="976.9" height="695.2"/>
<g>
	<path fill="#FFFFFF" d="M992.269,563.607H607.983v33.704l-1.951,59.604h3.901c29.694-66.648,82.579-85.505,120.617-85.505h16.147
		v369.113c0,53.102-30.994,69.9-49.634,72.501v0.108h205.039v-0.108c-20.591-2.601-48.334-19.399-48.334-72.501V571.301h16.147
		c38.039,0,90.924,18.748,120.617,85.505h3.901l-1.951-59.604v-33.595H992.269z"/>
	<path fill="#FFFFFF" d="M674.307,784.034c0-64.698-34.787-110.105-119.967-142.4c-57.979-21.999-92.874-47.9-92.874-99.702
		c0-49.201,39.989-79.003,85.072-79.003c57.437,0,88.323,42.048,107.071,93.85h3.901l-1.3-45.299v-44.757
		c-27.743-3.901-63.181-10.404-108.371-10.404c-99.918,0-159.523,44.216-169.276,111.839v41.94
		c8.886,63.831,57.545,91.466,110.647,113.682c62.53,25.901,96.125,53.102,96.125,106.854c0,57.003-34.787,84.855-88.973,84.855
		c-63.831,0-98.618-55.703-115.416-95.15h-2.276v90.165c29.044,6.394,71.742,12.138,119.642,12.138
		C587.935,922.533,674.307,880.485,674.307,784.034z"/>
</g>
</svg>
