<?xml version="1.0" encoding="UTF-8" standalone="no"?>
<svg width="231px" height="88px" viewBox="0 0 231 88" version="1.1" xmlns="http://www.w3.org/2000/svg" xmlns:xlink="http://www.w3.org/1999/xlink">
    <!-- Generator: Sketch 40.3 (33839) - http://www.bohemiancoding.com/sketch -->
    <title>Slice 1</title>
    <desc>Created with Sketch.</desc>
    <defs></defs>
    <g id="Page-1" stroke="none" stroke-width="1" fill="none" fill-rule="evenodd">
        <g id="TNP-main-masthead">
            <g id="XMLID_1_">
                <path d="M3.63,36.575 L3.63,16.995 L0.165,15.565 L0.165,13.915 L3.355,13.915 C5.5,12.32 8.085,9.57 9.295,5.665 L11.44,5.665 L11.44,13.915 L17.16,13.915 L17.16,16.665 L11.44,16.665 L11.44,34.54 C11.44,36.245 11.715,37.345 13.805,37.345 C15.73,37.345 16.885,37.015 17.93,36.85 L17.93,38.61 C15.895,39.93 13.035,41.635 9.35,41.635 C5.885,41.635 3.63,39.27 3.63,36.575 L3.63,36.575 Z" id="XMLID_959_" fill="#748A96"></path>
                <path d="M18.7,39.6 L21.725,38.115 L21.725,3.025 L18.095,1.485 L18.095,0.055 L29.535,0.055 L29.535,18.315 C31.735,15.07 34.595,13.09 38.225,13.09 C43.395,13.09 46.64,16.115 46.64,19.745 L46.64,38.06 L49.5,39.6 L49.5,41.03 L35.695,41.03 L35.695,39.6 L38.83,38.115 L38.83,20.845 C38.83,18.755 37.62,17.545 35.31,17.545 C32.56,17.545 30.525,19.47 29.48,21.01 L29.48,38.17 L32.67,39.655 L32.67,41.085 L18.7,41.085 L18.7,39.6 L18.7,39.6 Z" id="XMLID_957_" fill="#748A96"></path>
                <path d="M49.61,27.005 C49.61,18.7 54.78,13.09 62.81,13.09 C70.015,13.09 74.305,17.71 74.305,25.025 L74.305,26.84 L57.695,26.455 L57.695,28.05 C57.695,30.36 58.08,32.67 58.52,33.935 C59.455,36.74 61.655,38.335 64.735,38.335 C67.76,38.335 70.29,37.18 73.095,34.1 L74.03,34.1 L74.03,36.355 C71.72,39.49 68.2,41.8 63.305,41.8 C54.945,41.745 49.61,37.18 49.61,27.005 L49.61,27.005 Z M66.385,23.98 C66.385,23.045 66.275,20.515 66.055,19.25 C65.725,16.995 64.57,15.18 62.205,15.18 C60.06,15.18 58.74,16.995 58.245,19.305 C57.915,20.735 57.75,23.045 57.75,24.53 L66.385,23.98 L66.385,23.98 Z" id="XMLID_945_" fill="#748A96"></path>
                <path d="M0.88,73.095 L3.905,71.61 L3.905,50.325 L0.77,48.84 L0.77,47.355 L11.715,47.355 L11.715,51.755 C13.915,48.51 16.72,46.53 20.405,46.53 C25.575,46.53 28.82,49.555 28.82,53.185 L28.82,71.5 L31.68,72.985 L31.68,74.415 L17.82,74.415 L17.82,72.985 L21.01,71.5 L21.01,54.175 C21.01,52.03 19.745,50.875 17.435,50.875 C14.685,50.875 12.705,52.8 11.66,54.34 L11.66,71.5 L14.85,72.985 L14.85,74.415 L0.88,74.415 L0.88,73.095 L0.88,73.095 Z" id="XMLID_927_" fill="#F7941E"></path>
                <path d="M31.405,60.5 C31.405,52.195 36.575,46.585 44.605,46.585 C51.81,46.585 56.1,51.205 56.1,58.52 L56.1,60.335 L39.49,59.95 L39.49,61.545 C39.49,63.855 39.875,66.165 40.315,67.43 C41.25,70.235 43.45,71.83 46.53,71.83 C49.555,71.83 52.085,70.675 54.89,67.595 L55.825,67.595 L55.825,69.85 C53.515,72.985 49.995,75.295 45.1,75.295 C36.74,75.24 31.405,70.675 31.405,60.5 L31.405,60.5 Z M48.125,57.475 C48.125,56.54 48.015,54.01 47.795,52.745 C47.465,50.49 46.31,48.675 43.945,48.675 C41.8,48.675 40.48,50.49 39.985,52.8 C39.655,54.23 39.49,56.54 39.49,58.025 L48.125,57.475 L48.125,57.475 Z" id="XMLID_924_" fill="#F7941E"></path>
                <polygon id="XMLID_922_" fill="#F7941E" points="58.08 50.215 54.615 48.84 54.615 47.355 68.915 47.355 68.915 48.84 66.275 50.215 70.95 66 75.02 52.8 74.085 50.27 71.335 48.84 71.335 47.355 85.25 47.355 85.25 48.84 82.115 50.27 86.735 65.725 91.575 50.435 88.44 48.84 88.33 47.355 97.625 47.355 97.625 48.84 94.215 50.49 86.405 74.58 81.455 74.58 76.12 56.265 70.51 74.58 65.56 74.58"></polygon>
                <path d="M98.12,86.075 L101.64,84.645 L101.64,50.325 L98.505,48.84 L98.505,47.355 L109.45,47.355 L109.45,50.6 C111.21,48.235 113.465,46.585 116.71,46.585 C123.805,46.585 127.71,52.635 127.71,61.05 C127.71,69.025 123.31,75.185 116.215,75.185 C112.97,75.185 110.935,73.645 109.505,71.335 L109.505,84.59 L113.355,86.02 L113.355,87.505 L98.175,87.505 L98.175,86.075 L98.12,86.075 Z M118.305,68.145 C118.965,66.165 119.185,63.58 119.185,61.105 C119.185,58.41 118.965,55.605 118.415,53.625 C117.645,51.04 115.995,50.27 114.18,50.27 C111.98,50.27 110.385,51.92 109.505,53.185 L109.505,68.695 C110.44,70.125 111.815,71.39 114.125,71.39 C115.94,71.5 117.48,70.455 118.305,68.145 L118.305,68.145 Z" id="XMLID_919_" fill="#748A96"></path>
                <path d="M128.92,67.925 C128.92,60.225 136.785,58.025 144.98,58.025 L144.98,53.46 C144.98,51.315 143.66,48.785 140.305,48.785 C137.995,49.225 135.685,50.6 134.2,52.69 L132.605,56.54 L131.01,56.54 L131.01,49.06 C132.55,48.235 136.84,46.53 141.02,46.53 C149.49,46.53 152.79,49.61 152.79,53.185 L152.79,71.61 L155.595,73.095 L155.595,74.525 L145.09,74.525 L145.09,71.17 C143.055,73.92 140.25,75.24 137.005,75.24 C132.495,75.24 128.92,73.425 128.92,67.925 L128.92,67.925 Z M144.98,68.915 L144.98,60.06 C139.7,60.28 137.005,61.985 137.005,66.88 C137.005,70.29 138.16,71.5 140.69,71.445 C142.78,71.39 144.265,69.96 144.98,68.915 L144.98,68.915 Z" id="XMLID_916_" fill="#748A96"></path>
                <path d="M153.67,86.075 L157.19,84.645 L157.19,50.325 L154.055,48.84 L154.055,47.355 L165,47.355 L165,50.6 C166.76,48.235 169.015,46.585 172.26,46.585 C179.355,46.585 183.26,52.635 183.26,61.05 C183.26,69.025 178.86,75.185 171.765,75.185 C168.52,75.185 166.485,73.645 165.055,71.335 L165.055,84.59 L168.905,86.02 L168.905,87.505 L153.725,87.505 L153.725,86.075 L153.67,86.075 Z M173.855,68.145 C174.515,66.165 174.735,63.58 174.735,61.105 C174.735,58.41 174.515,55.605 173.965,53.625 C173.195,51.04 171.545,50.27 169.73,50.27 C167.53,50.27 165.935,51.92 165.055,53.185 L165.055,68.695 C165.99,70.125 167.365,71.39 169.675,71.39 C171.49,71.5 173.03,70.455 173.855,68.145 L173.855,68.145 Z" id="XMLID_911_" fill="#748A96"></path>
                <path d="M184.745,60.5 C184.745,52.195 189.915,46.585 197.945,46.585 C205.15,46.585 209.44,51.205 209.44,58.52 L209.44,60.335 L192.83,59.95 L192.83,61.545 C192.83,63.855 193.215,66.165 193.655,67.43 C194.59,70.235 196.79,71.83 199.87,71.83 C202.895,71.83 205.425,70.675 208.23,67.595 L209.165,67.595 L209.165,69.85 C206.855,72.985 203.335,75.295 198.44,75.295 C190.08,75.24 184.745,70.675 184.745,60.5 L184.745,60.5 Z M201.52,57.475 C201.52,56.54 201.41,54.01 201.19,52.745 C200.86,50.49 199.705,48.675 197.34,48.675 C195.195,48.675 193.875,50.49 193.38,52.8 C193.05,54.23 192.885,56.54 192.885,58.025 L201.52,57.475 L201.52,57.475 Z" id="XMLID_908_" fill="#748A96"></path>
                <path d="M209.22,73.095 L212.245,71.61 L212.245,50.325 L209.11,48.84 L209.11,47.355 L220.055,47.355 L220.055,52.69 C222.53,48.785 225.225,46.695 228.69,46.695 C229.075,46.695 229.955,46.695 230.78,46.86 L230.78,55.935 L229.075,55.935 L227.92,52.91 C227.425,52.745 226.49,52.47 225.5,52.47 C223.135,52.47 221.21,53.625 220,54.945 L220,71.5 L223.96,73.04 L223.96,74.47 L209.22,74.47 L209.22,73.095 L209.22,73.095 Z" id="XMLID_900_" fill="#748A96"></path>
                <path d="M103.07,16.61 C102.245,17.49 101.475,18.48 101.09,19.58 C100.705,20.515 99.99,21.175 99.385,21.945 C98.78,22.77 98.67,23.815 98.12,24.64 C97.79,25.19 97.24,25.575 96.8,26.015 C96.25,26.62 95.865,27.39 95.48,28.16 C94.49,30.195 93.39,32.175 92.235,34.1 C92.015,34.54 91.63,34.98 91.135,34.925 C90.75,34.87 90.53,34.485 90.365,34.1 C89.54,32.395 88.715,30.635 87.89,28.93 C87.835,28.765 87.725,28.6 87.725,28.435 C87.725,28.215 87.835,27.995 88,27.775 C88.495,26.95 89.045,26.125 89.54,25.355 C89.815,24.915 90.255,24.42 90.75,24.53 C91.135,24.64 91.3,24.97 91.41,25.355 C91.465,25.74 91.465,26.07 91.52,26.455 C91.74,27.335 92.84,27.94 93.72,27.555 C94.435,27.28 94.875,26.565 95.205,25.85 C97.185,22.275 99.495,18.92 102.135,15.84 C99.77,14.08 96.8,13.035 93.555,13.035 C85.635,13.035 79.2,19.47 79.2,27.39 C79.2,35.31 85.635,41.745 93.555,41.745 C101.475,41.745 107.91,35.31 107.91,27.39 C107.965,23.1 106.04,19.25 103.07,16.61 L103.07,16.61 Z" id="XMLID_21_" fill="#748A96"></path>
            </g>
        </g>
    </g>
</svg>