<svg id="Layer_1" data-name="Layer 1" xmlns="http://www.w3.org/2000/svg" viewBox="0 0 550 50"><defs><style>.cls-1{fill:#231f20;}.cls-2{fill:#939598;}</style></defs><title>LOGO_BLACK</title><path d="M42.79.56v9.5H27V49.44h-9.5V10.06H1.79V.56h41m.5-.5h-42v10.5H17V49.94h10.5V10.56H43.29V.06Z"/><polygon class="cls-1" points="66.38 13.84 70.32 13.84 70.32 23.2 74.59 23.2 74.59 13.84 78.52 13.84 78.52 36.16 74.59 36.16 74.59 26.39 70.32 26.39 70.32 36.16 66.38 36.16 66.38 13.84"/><polygon class="cls-1" points="80.4 13.84 90.32 13.84 90.32 16.94 84.33 16.94 84.33 22.86 88.83 22.86 88.83 25.82 84.33 25.82 84.33 33.07 90.32 33.07 90.32 36.16 80.4 36.16 80.4 13.84"/><polygon class="cls-1" points="56.9 36.16 60.83 36.16 60.83 16.94 64.51 16.94 64.51 13.84 53.21 13.84 53.21 16.94 56.9 16.94 56.9 36.16"/><polygon class="cls-1" points="212.51 13.84 201.21 13.84 201.21 16.93 204.89 16.93 204.89 36.15 208.79 36.15 208.83 16.93 212.51 16.93 212.51 13.84"/><rect class="cls-1" x="214.38" y="13.84" width="3.93" height="22.31"/><polygon class="cls-1" points="228.15 36.15 231.56 20.8 231.56 36.15 235.32 36.15 235.32 13.84 230.45 13.84 227.78 26.58 225.05 13.84 220.24 13.84 220.24 36.15 223.53 36.15 223.53 20.8 227 36.15 228.15 36.15"/><polygon class="cls-1" points="246.95 16.93 246.95 13.84 237.21 13.84 237.21 36.15 246.95 36.15 246.95 33.06 241.15 33.06 241.15 25.83 245.64 25.83 245.64 22.87 241.15 22.87 241.15 16.93 246.95 16.93"/><path class="cls-1" d="M254.67,22.87c-2.08-1.47-2.78-2.19-2.78-4v-.12c0-1.46.61-2.15,1.71-2.15s1.8.56,1.8,2.39v.72H259V19c0-3.72-2-5.49-5.4-5.49s-5.43,2-5.43,5.49v.1c0,3.49,1.49,5.11,4.17,7,2.14,1.53,3.17,2.28,3.17,4.52v.29c0,1.75-.61,2.56-1.83,2.56-1.43,0-2-.78-2-2.87v-.81H248v.71c0,4.15,2.2,6,5.73,6s5.58-1.9,5.58-5.84V30.2C259.27,26.11,257.35,24.74,254.67,22.87Z"/><polygon class="cls-1" points="99.36 20.83 104.35 36.16 108.16 36.16 108.16 13.84 104.72 13.84 104.72 27.39 100.26 13.84 95.92 13.84 95.92 36.16 99.36 36.16 99.36 20.83"/><polygon class="cls-1" points="119.76 33.06 113.96 33.06 113.96 25.83 118.46 25.83 118.46 22.86 113.96 22.86 113.96 16.93 119.76 16.93 119.76 13.84 110.03 13.84 110.03 36.16 119.76 36.16 119.76 33.06"/><polygon class="cls-1" points="128.16 36.16 130.38 22.65 132.58 36.16 136.44 36.16 139.5 13.84 136.01 13.84 134.24 28.66 131.73 13.84 129.13 13.84 126.65 28.57 124.91 13.84 121.08 13.84 124.14 36.16 128.16 36.16"/><path class="cls-1" d="M162.41,36.47c3.93,0,6.46-2.21,6.46-6.68V20.11c0-4.46-2.59-6.58-6.46-6.58s-6.49,2.22-6.49,6.62v9.74C155.92,34.28,158.45,36.47,162.41,36.47Zm-2.47-16.32c0-2.34.78-3.43,2.47-3.43s2.46,1.18,2.46,3.43v9.67c0,2.31-.81,3.5-2.46,3.5s-2.47-1.12-2.47-3.46Z"/><path class="cls-1" d="M170.75,36.16h3.93v-9.7h1.25l2.9,9.7h4.12l-3.28-10.3c1.68-.66,2.69-1.9,2.69-4.59V19.21c0-3.62-1.84-5.37-6.05-5.37h-5.55Zm3.93-19.29h1.53c1.59,0,2.31.63,2.31,2.41v2c0,1.87-.69,2.56-2.31,2.56h-1.53Z"/><polygon class="cls-1" points="188.42 25.42 192.88 36.16 197.1 36.16 191.95 24.14 196.84 13.84 192.88 13.84 188.42 23.58 188.42 13.84 184.49 13.84 184.49 36.16 188.42 36.16 188.42 25.42"/><polygon class="cls-1" points="148.16 36.16 151.76 36.16 151.76 26.64 155.76 13.84 152.32 13.84 150.13 21.95 147.86 13.84 143.96 13.84 148.16 26.61 148.16 36.16"/><path class="cls-1" d="M265,29.76v.72c0,4.15,2.19,6,5.73,6s5.58-1.9,5.58-5.84V30.2c0-4.09-1.92-5.46-4.6-7.33-2.07-1.47-2.78-2.19-2.78-4v-.12c0-1.46.61-2.15,1.71-2.15s1.8.56,1.8,2.4v.72h3.6V19c0-3.71-2-5.49-5.4-5.49s-5.43,2-5.43,5.49v.09c0,3.5,1.49,5.12,4.18,7,2.13,1.53,3.17,2.28,3.17,4.52v.28c0,1.75-.61,2.56-1.83,2.56-1.43,0-2-.78-2-2.87v-.81Z"/><polygon class="cls-1" points="284.63 36.16 284.63 16.93 288.33 16.93 288.33 13.84 277.03 13.84 277.03 16.93 280.72 16.93 280.72 36.16 284.63 36.16"/><polygon class="cls-1" points="297.38 36.16 297.38 26.64 301.38 13.84 297.94 13.84 295.75 21.95 293.48 13.84 289.58 13.84 293.78 26.61 293.78 36.16 297.38 36.16"/><polygon class="cls-1" points="306.54 13.84 302.61 13.84 302.61 36.16 311.66 36.16 311.66 33.03 306.54 33.03 306.54 13.84"/><polygon class="cls-1" points="317.46 25.83 321.96 25.83 321.96 22.86 317.46 22.86 317.46 16.93 323.45 16.93 323.45 13.84 313.53 13.84 313.53 36.16 323.45 36.16 323.45 33.06 317.46 33.06 317.46 25.83"/><polygon class="cls-1" points="336.95 26.57 334.2 13.85 329.36 13.85 329.36 36.16 332.67 36.16 332.67 20.8 336.17 36.16 337.32 36.16 340.75 20.8 340.75 36.16 344.53 36.16 344.53 13.85 339.63 13.85 336.95 26.57"/><path class="cls-1" d="M349.46,13.84l-3.68,22.31h3.59l.72-4.93h4.06l.75,4.93h3.93l-3.68-22.31Zm1,14.57,1.62-11.17,1.62,11.17Z"/><path class="cls-1" d="M366.18,27.33h2.21v2.84c0,2.15-.62,3.15-2.31,3.15-1.84,0-2.59-1.16-2.59-3.47V20.12c0-2.34.78-3.4,2.47-3.4,1.37,0,2.19.72,2.25,2.81V20H372v-.37c0-4.49-2.56-6.09-6.05-6.09-3.87,0-6.46,2.19-6.46,6.68v9.61c0,4.4,2.5,6.65,6.55,6.65s6.15-1.94,6.15-6.24V24.49h-6Z"/><path class="cls-1" d="M376.62,13.84l-3.68,22.31h3.59l.72-4.93h4.06l.75,4.93H386l-3.68-22.31Zm1,14.57,1.62-11.17,1.62,11.17Z"/><polygon class="cls-1" points="387.39 16.9 393.78 16.9 387.23 35.66 387.23 36.16 398.4 36.16 398.4 33.07 392.1 33.07 398.65 14.31 398.65 13.85 387.39 13.85 387.39 16.9"/><rect class="cls-1" x="400.29" y="13.84" width="3.93" height="22.31"/><polygon class="cls-1" points="414.9 27.39 410.44 13.85 406.1 13.85 406.1 36.16 409.53 36.16 409.53 20.83 414.53 36.16 418.33 36.16 418.33 13.85 414.9 13.85 414.9 27.39"/><polygon class="cls-1" points="420.21 36.16 430.13 36.16 430.13 33.07 424.14 33.07 424.14 25.83 428.64 25.83 428.64 22.86 424.14 22.86 424.14 16.93 430.13 16.93 430.13 13.85 420.21 13.85 420.21 36.16"/><polygon class="cls-1" points="38.04 5.31 22.29 5.31 22.29 44.69 17.04 49.94 27.54 49.94 27.54 10.56 43.29 10.56 43.29 0.06 38.04 5.31"/><polygon class="cls-1" points="6.54 5.31 1.29 10.56 17.04 10.56 22.29 5.31 6.54 5.31"/><path class="cls-2" d="M435.53,30.52v-.71h3.75v.81c0,2.08.62,2.85,2.08,2.85,1.24,0,1.86-.81,1.86-2.54v-.28c0-2.23-1.05-3-3.22-4.5-2.73-1.83-4.25-3.44-4.25-6.91v-.09c0-3.5,2-5.46,5.52-5.46s5.49,1.77,5.49,5.46v.68H443.1v-.71c0-1.83-.71-2.39-1.83-2.39s-1.74.68-1.74,2.14V19c0,1.8.71,2.51,2.82,4,2.73,1.86,4.68,3.22,4.68,7.29v.43c0,3.91-2.14,5.8-5.67,5.8S435.53,34.64,435.53,30.52Z"/><path class="cls-2" d="M449.11,14H453V36.16h-3.91Z"/><path class="cls-2" d="M455.47,14h4.31l4.43,13.46V14h3.41V36.16h-3.78l-5-15.22V36.16h-3.41Z"/><path class="cls-2" d="M476.36,24.57h6v5.71c0,4.28-2.17,6.2-6.11,6.2s-6.51-2.23-6.51-6.6V20.32c0-4.46,2.57-6.64,6.42-6.64,3.47,0,6,1.58,6,6v.37h-3.78v-.47c-.06-2.08-.87-2.79-2.23-2.79-1.67,0-2.45,1.05-2.45,3.38V29.9c0,2.29.74,3.44,2.57,3.44,1.67,0,2.29-1,2.29-3.13V27.39h-2.2Z"/><path class="cls-2" d="M491.3,31.26h-4l-.71,4.9H483L486.65,14h5.64L496,36.16H492Zm-3.63-2.79h3.22l-1.61-11.1Z"/><path class="cls-2" d="M497.38,14h5.36c4.22,0,6,1.74,6,5.43v2.26c0,3.63-2,5.27-5.92,5.27h-1.52v9.21h-3.91Zm5.33,10.14c1.52,0,2.2-.71,2.2-2.54V19.45c0-1.86-.68-2.48-2.2-2.48h-1.43v7.16Z"/><path class="cls-2" d="M510.21,29.93V20.26c0-4.37,2.67-6.57,6.45-6.57s6.42,2.11,6.42,6.54v9.61c0,4.43-2.51,6.64-6.42,6.64S510.21,34.3,510.21,29.93Zm8.9-.06V20.26c0-2.23-.81-3.41-2.45-3.41s-2.45,1.08-2.45,3.41V29.9c0,2.33.74,3.44,2.45,3.44S519.11,32.16,519.11,29.87Z"/><path class="cls-2" d="M525.21,14h5.52c4.19,0,6,1.74,6,5.33v2c0,2.67-1,3.91-2.67,4.56l3.26,10.23h-4.09l-2.88-9.64h-1.24v9.64h-3.91Zm5.43,9.89c1.61,0,2.29-.68,2.29-2.54v-2c0-1.77-.71-2.39-2.29-2.39h-1.52v6.88Z"/><path class="cls-2" d="M538.85,14h9.52v3.07h-5.61V23h4.46V25.9h-4.46v7.19h6v3.07h-9.86Z"/></svg>