<?xml version="1.0" standalone="no"?>
<!DOCTYPE svg PUBLIC "-//W3C//DTD SVG 1.1//EN" "http://www.w3.org/Graphics/SVG/1.1/DTD/svg11.dtd">
<svg width="100%" height="100%" viewBox="0 0 90 113" version="1.1" xmlns="http://www.w3.org/2000/svg" xmlns:xlink="http://www.w3.org/1999/xlink" xml:space="preserve" style="fill-rule:evenodd;clip-rule:evenodd;stroke-linejoin:round;stroke-miterlimit:1.41421;">
    <g transform="matrix(1,0,0,1,-1,11)">
        <path d="M78.824,73.104C77.816,56.003 75.091,53.957 75.091,53.957C75.455,53.167 75.862,53.327 75.862,52.507C75.862,51.636 75.395,51.648 75.395,51.101C75.395,50.553 75.862,50.005 75.862,49.61C75.862,49.215 75.578,48.852 75.456,48.244C75.335,47.637 75.862,47.271 75.862,47.271C76.186,45.954 73.106,44.982 73.106,44.982C73.106,44.982 72.295,42.712 75.862,33.635C79.428,24.557 78.778,20.505 78.778,20.505C77.322,20.169 69.514,19.833 64.832,19.657L64.226,18.55C64.226,18.55 64.47,17.668 64.226,17.547C63.984,17.425 62.554,17.425 62.554,17.425L62.571,17.425L62.571,15.318L63.382,12.157L60.951,12.157L60.545,12.157L58.113,12.157L58.924,15.318L58.924,17.425L59.026,17.425C59.026,17.425 57.653,17.426 57.372,17.54L54.061,14.79C54.061,14.79 52.573,14.659 50.233,14.659C47.892,14.659 19.475,16.27 19.475,16.27L19.469,16.27C19.477,16.046 19.494,15.533 19.535,14.446C19.64,11.68 20.721,10.465 21.237,9.523C21.754,8.581 22.129,7.942 22.048,5.429C21.967,2.916 20.508,2.916 20.508,2.916L15.981,2.916L11.694,2.916C11.694,2.916 10.266,3.343 10.421,5.853C10.575,8.362 11.008,8.962 11.61,9.852C12.212,10.742 13.402,11.851 13.765,14.595C13.912,15.707 13.982,16.241 14.012,16.481C13.869,16.564 13.639,16.728 13.639,16.938C13.639,17.243 14.125,17.394 14.125,17.394L23.852,17.06L52.948,15.784L57.097,19L56.705,19.694C51.986,19.878 45.123,20.19 43.766,20.504C43.766,20.504 43.117,24.556 46.683,33.634C50.25,42.711 49.44,44.981 49.44,44.981C49.44,44.981 46.359,45.953 46.683,47.27C46.683,47.27 47.209,47.635 47.088,48.243C46.967,48.851 46.683,49.215 46.683,49.609C46.683,50.005 47.149,50.552 47.149,51.1C47.149,51.647 46.683,51.635 46.683,52.506C46.683,53.326 47.088,53.166 47.454,53.956C47.454,53.956 44.728,56.003 43.721,73.103C43.721,73.103 42.874,73.346 42.956,74.643C43.036,75.94 44.414,82.585 48.467,84.855C52.519,87.125 61.273,87.084 61.273,87.084C61.273,87.084 70.027,87.125 74.08,84.855C78.133,82.585 79.51,75.94 79.592,74.643C79.67,73.347 78.824,73.104 78.824,73.104ZM48.27,47.052C48.354,47.069 56.881,48.648 74.461,47.049C74.598,47.037 74.713,47.136 74.726,47.269C74.739,47.403 74.639,47.521 74.506,47.534C68.463,48.083 63.52,48.254 59.714,48.254C57.711,48.254 56.024,48.206 54.656,48.143C50.352,47.942 48.199,47.536 48.177,47.531C48.046,47.506 47.959,47.379 47.985,47.247C48.011,47.115 48.139,47.028 48.27,47.052ZM48.27,49.787C48.354,49.803 56.881,51.382 74.461,49.783C74.598,49.77 74.713,49.87 74.726,50.004C74.739,50.137 74.639,50.256 74.506,50.268C68.463,50.818 63.52,50.988 59.714,50.988C57.711,50.988 56.024,50.941 54.656,50.877C50.352,50.676 48.199,50.27 48.177,50.266C48.046,50.241 47.959,50.113 47.985,49.981C48.011,49.849 48.139,49.763 48.27,49.787ZM48.27,52.521C48.354,52.537 56.881,54.116 74.461,52.517C74.598,52.506 74.713,52.604 74.726,52.738C74.739,52.872 74.639,52.99 74.506,53.002C68.463,53.552 63.52,53.722 59.714,53.722C57.711,53.722 56.024,53.675 54.656,53.612C50.352,53.411 48.199,53.004 48.177,53C48.046,52.975 47.959,52.847 47.985,52.715C48.011,52.583 48.139,52.498 48.27,52.521ZM77.824,75.048C71.507,75.519 66.226,75.685 61.924,75.685C57.806,75.685 54.585,75.534 52.207,75.352C46.926,74.95 44.609,74.337 44.514,74.311C44.384,74.277 44.307,74.143 44.342,74.013C44.377,73.883 44.511,73.807 44.641,73.841C44.663,73.848 47.026,74.471 52.272,74.869C57.114,75.236 65.47,75.482 77.789,74.563C77.925,74.55 78.04,74.653 78.05,74.787C78.06,74.921 77.958,75.038 77.824,75.048Z" style="fill:black;fill-rule:nonzero;"/>
    </g>
</svg>
