<?xml version="1.0" standalone="no"?>
<!DOCTYPE svg PUBLIC "-//W3C//DTD SVG 1.1//EN" "http://www.w3.org/Graphics/SVG/1.1/DTD/svg11.dtd">
<svg width="100%" height="100%" viewBox="0 0 100 125" version="1.1" xmlns="http://www.w3.org/2000/svg" xmlns:xlink="http://www.w3.org/1999/xlink" xml:space="preserve" style="fill-rule:evenodd;clip-rule:evenodd;stroke-linejoin:round;stroke-miterlimit:1.41421;">
    <g transform="matrix(1,0,0,1,-0.218914,12.8886)">
        <path d="M75.8,14.6C69.8,8.3 61.4,4.9 51.6,4.9C50.9,4.9 50.2,4.9 49.4,5C39.5,5.4 31,9.6 24.6,17.1C16.8,26.2 13.2,39.3 14.6,53C17.2,78.1 32.1,95 51.7,95C52.6,95 53.5,95 54.5,94.9C74.5,93.3 84.2,78.9 85.7,48.3C86.4,33.8 83,22.1 75.8,14.6ZM80.6,48C79.2,76 71.2,88.5 54,89.9C53.2,90 52.4,90 51.6,90C34.4,90 21.8,75.3 19.5,52.5C18.2,40.1 21.5,28.4 28.4,20.4C33.9,14 41.2,10.4 49.7,10C50.3,10 51,10 51.6,10C60,10 67.2,12.8 72.2,18.1C78.4,24.6 81.3,34.9 80.6,48Z" style="fill:black;fill-rule:nonzero;"/>
    </g>
    <g transform="matrix(1,0,0,1,-0.218914,12.8886)">
        <path d="M52,14.9C57.7,28.5 58.2,39.6 53.5,50.5C48.5,62.2 47.6,75.3 51,84.9C51.2,84.9 51.4,84.9 51.6,84.9C52.2,84.9 52.9,84.9 53.6,84.8C64.1,83.9 74,78.9 75.6,47.6C76.2,36 73.7,26.9 68.5,21.4C63.5,16.2 56.9,15 52,14.9Z" style="fill:black;fill-rule:nonzero;"/>
    </g>
    <g transform="matrix(1,0,0,1,-0.218914,12.8886)">
        <path d="M44.8,49.5C50.2,36.9 52.8,26.1 48.2,15C41.8,15.7 36.4,18.5 32.1,23.5C26.1,30.5 23.3,40.8 24.4,51.9C26.3,69.8 35,82 47,84.5C43,73.5 39.9,61 44.8,49.5Z" style="fill:black;fill-rule:nonzero;"/>
    </g>
</svg>
